<svg width="99" height="98" viewBox="0 0 99 98" fill="none" xmlns="http://www.w3.org/2000/svg">
<circle cx="48.5044" cy="48.5027" r="25.5" fill="#ED8484"/>
<path d="M53.9419 6.91248L53.9069 7.49122C53.8893 7.77182 53.8192 8.05242 53.6964 8.29795C53.556 8.54348 53.3806 8.77146 53.1877 8.96438C52.9772 9.15729 52.7492 9.29759 52.4861 9.40282C52.223 9.50804 51.9423 9.54312 51.6441 9.52558C51.381 9.50804 51.1354 9.45543 50.8723 9.36774C50.6092 9.28006 50.3812 9.13975 50.1882 8.94684C49.9953 8.75393 49.8374 8.52594 49.7146 8.24534C49.5918 7.96474 49.5568 7.59645 49.5743 7.17555L49.9076 2.03703C49.9251 1.7389 49.9953 1.45829 50.1181 1.19523C50.2408 0.932167 50.3987 0.721716 50.6092 0.54634C50.8197 0.370964 51.0477 0.230663 51.3284 0.142975C51.609 0.0552876 51.8897 -0.0148627 52.223 0.00267485C52.8544 0.03775 53.3456 0.283276 53.7139 0.721716C53.8893 0.932167 54.0296 1.17769 54.1173 1.45829C54.2051 1.75643 54.2401 2.05457 54.2226 2.38779L54.1875 2.91391L52.8544 2.82623L52.8895 2.38779C52.907 2.12472 52.8544 1.89673 52.7141 1.68628C52.5738 1.47583 52.3808 1.37061 52.1352 1.35307C51.802 1.33553 51.5739 1.42322 51.4512 1.61613C51.3284 1.80905 51.2582 2.07211 51.2407 2.38779L50.9425 7.15801C50.9249 7.42107 50.9776 7.6666 51.0828 7.85951C51.1881 8.05242 51.3985 8.15765 51.6967 8.17519C51.7844 8.17519 51.8721 8.17519 51.9774 8.14011C52.0826 8.12257 52.1703 8.06996 52.2756 7.99981C52.3633 7.92966 52.4334 7.84197 52.4861 7.71921C52.5387 7.59645 52.5738 7.45615 52.5913 7.26323L52.6264 6.80726L53.9419 6.91248Z" fill="black"/>
<path d="M55.8716 9.9114L57.9063 0.774323L59.2219 1.07246L57.4853 8.91176L60.0814 9.4905L59.7832 10.8058L55.8716 9.9114Z" fill="black"/>
<path d="M61.6775 11.4196L64.8348 2.59824L66.0978 3.05421L62.9404 11.8756L61.6775 11.4196Z" fill="black"/>
<path d="M70.2022 12.3141L69.9391 12.8227C69.7988 13.0857 69.6409 13.2962 69.4129 13.4715C69.2024 13.6469 68.9569 13.7872 68.6937 13.8749C68.4306 13.9801 68.1675 14.0328 67.8693 14.0152C67.5887 13.9977 67.308 13.9275 67.0449 13.7872C66.8169 13.6645 66.6064 13.5242 66.3959 13.3312C66.1854 13.1383 66.0451 12.9279 65.9398 12.6824C65.8346 12.4368 65.782 12.1562 65.782 11.8406C65.782 11.5249 65.8872 11.1917 66.0802 10.8058L68.4306 6.21099C68.571 5.93039 68.7464 5.7024 68.9569 5.52703C69.1673 5.33411 69.4129 5.21135 69.676 5.12366C69.9391 5.03597 70.2022 5.01844 70.5004 5.03597C70.7811 5.05351 71.0793 5.1412 71.3599 5.29904C71.9212 5.57964 72.2896 6.00054 72.4475 6.5442C72.5176 6.80727 72.5527 7.08787 72.5176 7.38601C72.4825 7.68415 72.3948 7.98229 72.2545 8.26289L72.0089 8.7364L70.8162 8.12259L71.0267 7.71922C71.1495 7.49123 71.1845 7.24571 71.1319 7.00018C71.0793 6.75466 70.9565 6.57928 70.7285 6.47405C70.4303 6.31622 70.1847 6.31622 69.9918 6.43898C69.7988 6.56174 69.6409 6.77219 69.4831 7.05279L67.308 11.3144C67.1852 11.56 67.1326 11.7879 67.1502 11.9984C67.1677 12.2088 67.3256 12.4018 67.5887 12.5421C67.6588 12.5771 67.7641 12.6122 67.8693 12.6297C67.9746 12.6473 68.0798 12.6473 68.1851 12.6297C68.2903 12.5947 68.3956 12.5421 68.4833 12.4544C68.5885 12.3667 68.6762 12.2439 68.7639 12.0861L68.9744 11.6827L70.2022 12.3141Z" fill="black"/>
<path d="M70.7986 15.8216L76.3765 8.29794L77.4641 9.10467L74.9031 12.5245L74.9207 12.542L79.0427 10.2797L80.1127 11.0864L76.4116 13.0156L74.8154 18.8205L73.6753 17.9611L74.9207 13.7171L73.5349 14.3835L71.8686 16.6283L70.7986 15.8216Z" fill="black"/>
<path d="M79.0779 23.2049L85.3224 18.0313L84.3401 16.8388L85.3048 16.032L88.1464 19.4519L87.1817 20.2586L86.1994 19.066L79.9549 24.2396L79.0779 23.2049Z" fill="black"/>
<path d="M87.8834 22.9068C88.1991 22.7139 88.5324 22.5911 88.8481 22.556C89.1638 22.5209 89.462 22.5385 89.7427 22.6262C90.0058 22.7139 90.2514 22.8366 90.4794 23.0295C90.7074 23.2224 90.8828 23.4154 91.0232 23.6433C91.1635 23.8713 91.2687 24.1344 91.3213 24.415C91.374 24.6956 91.3915 24.9762 91.3389 25.2568C91.2863 25.5374 91.1635 25.8005 90.9881 26.0635C90.8127 26.3266 90.5496 26.5546 90.2338 26.7475L85.989 29.308C85.6557 29.5184 85.3224 29.6237 85.0242 29.6587C84.7085 29.6938 84.4278 29.6587 84.1647 29.5886C83.8841 29.5009 83.6385 29.3606 83.4105 29.1852C83.1824 29.0098 83.007 28.7994 82.8667 28.5714C82.7264 28.3434 82.6211 28.0804 82.5685 27.7998C82.5159 27.5192 82.5159 27.2385 82.5685 26.9579C82.6211 26.6773 82.7264 26.3967 82.9018 26.1512C83.0772 25.8882 83.3228 25.6602 83.6736 25.4673L87.8834 22.9068ZM84.3401 26.6072C84.0595 26.7826 83.9016 26.9755 83.8665 27.2035C83.8315 27.4315 83.8665 27.6595 84.0069 27.8699C84.1296 28.0804 84.305 28.2207 84.5331 28.2908C84.7611 28.361 85.0067 28.3259 85.2873 28.1505L89.5146 25.59C89.7953 25.4146 89.9532 25.2217 89.9882 24.9937C90.0233 24.7658 89.9883 24.5378 89.8479 24.3273C89.7251 24.1169 89.5497 23.9766 89.3217 23.9064C89.0937 23.8363 88.8481 23.8713 88.5675 24.0467L84.3401 26.6072Z" fill="black"/>
<path d="M86.4099 35.8144L95.3732 33.1136L96.5309 36.9368L95.3206 37.3051L94.5488 34.7621L91.9177 35.5513L92.5842 37.7611L91.3739 38.1294L90.7074 35.9196L88.0763 36.7088L88.8481 39.2518L87.5676 39.6376L86.4099 35.8144Z" fill="black"/>
<path d="M87.9536 41.4791L97.2327 40.269L97.3905 41.5492L92.0581 44.2851V44.3026L97.6536 43.566L97.829 44.8989L88.55 46.109L88.3921 44.8638L93.707 42.1104V42.0753L88.129 42.8119L87.9536 41.4791Z" fill="black"/>
<path d="M88.6025 49.2482L96.7063 49.4411L96.7414 47.8978L98.0043 47.9329L97.899 52.3699L96.6361 52.3348L96.6712 50.7915L88.5674 50.5986L88.6025 49.2482Z" fill="black"/>
<path d="M88.357 53.7729L97.601 55.3162L96.9344 59.2622L95.689 59.0517L96.1275 56.4386L93.4087 55.9826L93.0228 58.2625L91.7775 58.0521L92.1633 55.7722L89.4621 55.3162L89.0236 57.9293L87.708 57.7013L88.357 53.7729Z" fill="black"/>
<path d="M87.2343 59.5603L96.1099 62.5417L95.4258 64.5936C94.9171 66.0843 93.7945 66.5402 92.058 65.9615C91.5318 65.7861 91.1108 65.5581 90.8126 65.2775C90.4969 64.9969 90.3039 64.6111 90.2162 64.1201H85.7083L86.1643 62.7697L90.3565 62.8574L90.6197 62.1032L86.8309 60.823L87.2343 59.5603ZM94.4786 63.4186L91.7072 62.4891L91.4616 63.2081C91.3914 63.4361 91.3564 63.629 91.3739 63.7693C91.3914 63.9271 91.4441 64.0499 91.5318 64.1727C91.6195 64.2779 91.7598 64.3656 91.9177 64.4533C92.0755 64.541 92.2685 64.6111 92.4965 64.6813C92.7245 64.7514 92.9175 64.804 93.0929 64.8391C93.2683 64.8742 93.4437 64.8742 93.584 64.8391C93.8647 64.7514 94.0927 64.5059 94.233 64.0674L94.4786 63.4186Z" fill="black"/>
<path d="M83.1122 74.0288L82.6211 73.7131C82.3755 73.5553 82.1826 73.3624 82.0247 73.1168C81.8668 72.8713 81.7616 72.6258 81.6914 72.3627C81.6213 72.0821 81.6213 71.8191 81.6563 71.5385C81.6914 71.2579 81.7967 70.9948 81.9721 70.7493C82.1124 70.5388 82.2878 70.3459 82.4808 70.153C82.6912 69.9776 82.9193 69.8373 83.1824 69.7672C83.4455 69.6795 83.7262 69.6619 84.0419 69.697C84.3576 69.7321 84.6733 69.8724 85.0417 70.1004L89.3567 72.9415C89.6198 73.1168 89.8303 73.3098 89.9882 73.5378C90.1461 73.7657 90.2513 74.0113 90.3215 74.2919C90.3741 74.5549 90.3741 74.8355 90.3215 75.1161C90.2688 75.3967 90.1461 75.6773 89.9706 75.9404C89.6198 76.4665 89.1638 76.7822 88.6025 76.8874C88.3218 76.94 88.0412 76.94 87.7605 76.8699C87.4623 76.8173 87.1817 76.6945 86.9186 76.5191L86.48 76.221L87.2168 75.0986L87.5851 75.3441C87.7956 75.4844 88.0412 75.5546 88.2867 75.537C88.5323 75.5195 88.7253 75.3967 88.8656 75.1863C89.041 74.9057 89.0761 74.6602 88.9708 74.4672C88.8656 74.2743 88.6726 74.0814 88.4095 73.906L84.4102 71.2754C84.1822 71.1176 83.9542 71.0474 83.7437 71.0474C83.5332 71.0474 83.3227 71.1702 83.1648 71.4332C83.1122 71.5034 83.0771 71.5911 83.0421 71.6963C83.007 71.8015 83.007 71.9068 83.007 72.012C83.0245 72.1172 83.0596 72.2224 83.1473 72.3277C83.235 72.4329 83.3403 72.5381 83.4806 72.6433L83.8665 72.8889L83.1122 74.0288Z" fill="black"/>
<path d="M79.5516 74.2217L86.4977 80.5177L85.6032 81.5174L79.6393 76.1158L77.8502 78.08L76.8503 77.1856L79.5516 74.2217Z" fill="black"/>
<path d="M75.3767 78.5184L81.4985 85.6036L80.4811 86.4805L74.3594 79.3953L75.3767 78.5184Z" fill="black"/>
<path d="M70.3953 85.4984L70.0796 85.0073C69.9217 84.7618 69.8165 84.4987 69.7638 84.2357C69.7112 83.9551 69.7112 83.692 69.7638 83.4114C69.8165 83.1308 69.9217 82.8853 70.062 82.6398C70.2023 82.3942 70.4128 82.2013 70.6584 82.0259C70.8689 81.8856 71.0969 81.7804 71.36 81.6927C71.6231 81.605 71.8863 81.57 72.1494 81.605C72.43 81.6401 72.6931 81.7278 72.9562 81.8856C73.2194 82.0435 73.4649 82.3065 73.7105 82.6573L76.5521 86.954C76.7275 87.2171 76.8327 87.4801 76.8854 87.7607C76.938 88.0413 76.938 88.3044 76.8854 88.585C76.8327 88.8656 76.7275 89.1111 76.5521 89.3391C76.3767 89.5671 76.1662 89.7951 75.9031 89.9705C75.3769 90.3212 74.8331 90.4265 74.2718 90.3037C73.9911 90.2335 73.7456 90.1283 73.5 89.9529C73.2544 89.7776 73.0439 89.5671 72.8685 89.2865L72.5703 88.8481L73.6929 88.1115L73.9385 88.4798C74.0788 88.7078 74.2718 88.8481 74.4998 88.9358C74.7279 89.0059 74.9559 88.9884 75.1664 88.8481C75.447 88.6727 75.5698 88.4622 75.5523 88.2167C75.5347 87.9887 75.4295 87.7432 75.2541 87.4801L72.623 83.4816C72.4826 83.2536 72.3072 83.0957 72.0967 83.0081C71.9038 82.9204 71.6758 82.9554 71.4127 83.1308C71.3425 83.1834 71.2723 83.236 71.2022 83.3237C71.132 83.4114 71.0794 83.4991 71.0443 83.6043C71.0092 83.7095 71.0092 83.8148 71.0443 83.9551C71.0618 84.0954 71.132 84.2357 71.2373 84.376L71.4828 84.7618L70.3953 85.4984Z" fill="black"/>
<path d="M67.0449 84.2883L70.8513 92.8466L69.6234 93.3903L67.8869 89.4794L67.8693 89.497L67.8167 94.197L66.5889 94.7407L66.7292 90.5667L62.4668 86.3227L63.7648 85.7439L66.852 88.9182L66.9572 87.3924L65.8171 84.832L67.0449 84.2883Z" fill="black"/>
<path d="M56.5206 87.8659L57.9238 95.8455L59.4499 95.5825L59.6604 96.8276L55.2752 97.5993L55.0647 96.3541L56.5907 96.0911L55.1875 88.1115L56.5206 87.8659Z" fill="black"/>
<path d="M52.4335 95.6527C52.451 96.0209 52.3809 96.3717 52.2581 96.6523C52.1353 96.9504 51.9599 97.196 51.7494 97.3889C51.5389 97.5818 51.3109 97.7221 51.0478 97.8273C50.7847 97.9325 50.5216 97.9851 50.2409 97.9851C49.9778 97.9851 49.6972 97.9501 49.434 97.8624C49.1709 97.7747 48.9254 97.6344 48.6973 97.459C48.4868 97.2661 48.3114 97.0381 48.1711 96.7575C48.0308 96.4769 47.9606 96.1437 47.9431 95.7579L47.8203 90.8123C47.8028 90.4264 47.8729 90.0757 47.9957 89.7951C48.1185 89.5145 48.2939 89.269 48.4868 89.0936C48.6973 88.9007 48.9429 88.7428 49.206 88.6376C49.4691 88.5324 49.7322 88.4798 50.0129 88.4798C50.276 88.4798 50.5566 88.5149 50.8198 88.6025C51.0829 88.6902 51.3284 88.8305 51.5565 89.0234C51.7845 89.1988 51.9599 89.4268 52.1002 89.7074C52.2406 89.988 52.3107 90.3212 52.3283 90.7071L52.4335 95.6527ZM50.9601 90.7421C50.9601 90.4089 50.8548 90.1809 50.6794 90.0406C50.504 89.9003 50.276 89.8126 50.0304 89.8302C49.7849 89.8302 49.5744 89.9179 49.399 90.0757C49.2236 90.2335 49.1358 90.4791 49.1534 90.7947L49.2762 95.7403C49.2762 96.0736 49.3814 96.3015 49.5568 96.4418C49.7322 96.5821 49.9603 96.6698 50.2058 96.6523C50.4514 96.6523 50.6619 96.5646 50.8373 96.4068C51.0127 96.2489 51.1004 96.0034 51.0829 95.6877L50.9601 90.7421Z" fill="black"/>
<path d="M41.9267 87.9887L39.8569 97.1258L35.9629 96.2489L36.2435 95.0213L38.8396 95.6L39.4535 92.9168L37.1907 92.4082L37.4714 91.1806L39.7341 91.6891L40.3481 89.0059L37.752 88.4272L38.0502 87.1118L41.9267 87.9887Z" fill="black"/>
<path d="M36.2787 86.5682L32.7705 95.2493L31.5778 94.7582L31.8233 88.7603L31.8058 88.7428L29.6834 93.969L28.438 93.4604L31.9461 84.7793L33.1214 85.2528L32.9109 91.2331L32.9284 91.2507L35.0508 86.0245L36.2787 86.5682Z" fill="black"/>
<path d="M29.1922 83.2886L25.0175 90.2335L26.3506 91.0402L25.7016 92.1276L21.8953 89.8302L22.5443 88.7428L23.8774 89.5496L28.0521 82.6047L29.1922 83.2886Z" fill="black"/>
<path d="M25.3506 80.8158L19.4394 88.0764L16.3347 85.551L17.1416 84.5689L19.1939 86.2525L20.9304 84.1304L19.1412 82.6748L19.9481 81.6927L21.7373 83.1483L23.4738 81.0263L21.4215 79.3427L22.2635 78.308L25.3506 80.8158Z" fill="black"/>
<path d="M20.8779 76.9751L13.8967 83.2185L12.4583 81.605C11.4059 80.43 11.5638 79.2374 12.9319 78.0098C13.3354 77.6415 13.7564 77.396 14.1598 77.2557C14.5632 77.1329 15.0018 77.1505 15.4578 77.3083L17.6855 73.3799L18.6327 74.4321L16.4576 78.0449L17.0014 78.6412L19.9833 75.9754L20.8779 76.9751ZM13.9318 81.377L16.1068 79.4304L15.5981 78.8691C15.4403 78.6938 15.2999 78.571 15.1421 78.5184C15.0018 78.4658 14.8614 78.4307 14.7036 78.4658C14.5632 78.5009 14.4229 78.5535 14.265 78.6587C14.1072 78.7639 13.9493 78.8867 13.7739 79.0445C13.5985 79.2024 13.4582 79.3427 13.3354 79.483C13.2126 79.6233 13.1424 79.7636 13.0898 79.9039C13.0197 80.1845 13.1424 80.5001 13.4406 80.8509L13.9318 81.377Z" fill="black"/>
<path d="M10.3358 66.2947L10.8445 66.0316C11.1076 65.8913 11.3707 65.8212 11.6514 65.8037C11.932 65.7861 12.2127 65.8037 12.4758 65.8913C12.7389 65.979 12.9845 66.1018 13.2125 66.2772C13.4405 66.4525 13.6159 66.6805 13.7563 66.9436C13.879 67.1716 13.9667 67.4171 14.0194 67.6802C14.072 67.9432 14.072 68.2063 14.0194 68.4869C13.9667 68.75 13.844 69.013 13.651 69.2586C13.4756 69.5041 13.1774 69.7321 12.8091 69.925L8.23093 72.275C7.95028 72.4153 7.68717 72.503 7.40652 72.5205C7.12587 72.5556 6.84522 72.5205 6.59964 72.4329C6.33653 72.3452 6.09096 72.2224 5.88048 72.0295C5.66999 71.8366 5.47704 71.6086 5.33671 71.3105C5.03852 70.7492 5.00344 70.2056 5.17885 69.6619C5.26655 69.3989 5.40688 69.1533 5.61736 68.9253C5.81031 68.6974 6.05588 68.522 6.33653 68.3641L6.81013 68.1186L7.42406 69.3112L7.02062 69.5216C6.79259 69.6444 6.61719 69.8198 6.51194 70.0302C6.4067 70.2582 6.42424 70.4687 6.52948 70.6966C6.68735 70.9948 6.8803 71.1351 7.10833 71.1526C7.33636 71.1526 7.59947 71.0825 7.88012 70.9422L12.1425 68.75C12.3881 68.6272 12.5635 68.4694 12.6687 68.2765C12.774 68.0835 12.7564 67.8555 12.6161 67.5749C12.581 67.5048 12.5109 67.4171 12.4407 67.347C12.3705 67.2768 12.2828 67.2067 12.1776 67.1716C12.0724 67.1365 11.9671 67.119 11.8268 67.1365C11.6865 67.154 11.5461 67.1891 11.3883 67.2768L10.9848 67.4873L10.3358 66.2947Z" fill="black"/>
<path d="M11.8969 63.0853L3.00374 66.0141L2.58276 64.7339L10.1954 62.226L9.37102 59.7006L10.6515 59.2797L11.8969 63.0853Z" fill="black"/>
<path d="M10.2306 57.298L1.03923 59.1043L0.776123 57.789L9.96746 55.9826L10.2306 57.298Z" fill="black"/>
<path d="M6.63479 49.5288L7.21363 49.4937C7.51182 49.4762 7.77493 49.5113 8.03804 49.5989C8.30116 49.6866 8.54672 49.8269 8.75721 50.0023C8.9677 50.1777 9.14311 50.4057 9.28343 50.6512C9.42376 50.8967 9.49392 51.1773 9.51147 51.4755C9.52901 51.7385 9.51146 51.9841 9.45884 52.2647C9.40622 52.5277 9.30098 52.7732 9.14311 53.0012C8.98524 53.2292 8.77475 53.4046 8.4941 53.5624C8.21345 53.7203 7.88018 53.808 7.4592 53.8255L2.31977 54.1587C2.02158 54.1763 1.72339 54.1412 1.46028 54.0535C1.19716 53.9658 0.951594 53.8255 0.741105 53.6501C0.530617 53.4747 0.37275 53.2468 0.249965 52.9837C0.10964 52.7382 0.0394768 52.44 0.00439538 52.1244C-0.0306861 51.493 0.144721 50.9669 0.513076 50.546C0.706024 50.3355 0.934053 50.1777 1.19716 50.0549C1.46028 49.9322 1.75847 49.862 2.09174 49.8269L2.61796 49.7919L2.70567 51.1247L2.26715 51.1598C2.00404 51.1773 1.77601 51.265 1.6006 51.4229C1.42519 51.5807 1.33749 51.7911 1.35503 52.0367C1.37257 52.3699 1.49536 52.5803 1.70585 52.6856C1.91633 52.7732 2.17944 52.8259 2.49518 52.7908L7.26625 52.4751C7.5469 52.4576 7.75739 52.3874 7.9328 52.2471C8.10821 52.1068 8.17837 51.8964 8.16083 51.5982C8.16083 51.5105 8.12575 51.4229 8.09067 51.3176C8.05558 51.2124 8.00296 51.1247 7.91526 51.037C7.8451 50.9669 7.73985 50.8967 7.61707 50.8617C7.49428 50.809 7.33642 50.809 7.16101 50.809L6.70495 50.8441L6.63479 49.5288Z" fill="black"/>
<path d="M9.33606 47.2665L0.00439453 46.3545L0.12718 45.0217L4.38957 45.425V45.4075L0.320127 43.0399L0.442913 41.7071L4.00368 43.8817L9.80966 42.2683L9.66933 43.6888L5.3894 44.8112L6.66987 45.653L9.45884 45.9161L9.33606 47.2665Z" fill="black"/>
<path d="M11.4058 36.323L3.77563 33.6047L3.24941 35.0603L2.05664 34.6394L3.5476 30.4479L4.74037 30.8688L4.21415 32.3244L11.8444 35.0428L11.4058 36.323Z" fill="black"/>
<path d="M6.6523 28.9046C6.31902 28.7292 6.05591 28.5188 5.86297 28.2557C5.67002 28.0102 5.54723 27.7296 5.47707 27.449C5.40691 27.1684 5.40691 26.9053 5.44199 26.6247C5.47707 26.3441 5.56477 26.0811 5.7051 25.8355C5.84543 25.59 6.00329 25.3796 6.21378 25.1866C6.42427 24.9937 6.66984 24.8534 6.93295 24.7482C7.19606 24.6605 7.49425 24.6254 7.80999 24.643C8.12572 24.6605 8.44145 24.7482 8.77473 24.9236L13.1424 27.2561C13.4932 27.449 13.7563 27.6594 13.9492 27.905C14.1422 28.1505 14.265 28.4136 14.3176 28.6942C14.3878 28.9748 14.3878 29.2554 14.3527 29.536C14.3176 29.8166 14.2299 30.0796 14.1071 30.3252C13.9843 30.5707 13.8089 30.7811 13.5984 30.974C13.3879 31.167 13.1424 31.3073 12.8793 31.3949C12.6161 31.5002 12.318 31.5528 12.0198 31.5352C11.704 31.5177 11.3883 31.4125 11.0375 31.2371L6.6523 28.9046ZM11.6514 30.0446C11.9321 30.2024 12.1952 30.2375 12.4057 30.1498C12.6161 30.0621 12.7916 29.9043 12.9143 29.6938C13.0371 29.4834 13.0547 29.2554 13.0196 29.0274C12.967 28.7994 12.8091 28.6065 12.5109 28.4486L8.14326 26.1161C7.86261 25.9583 7.5995 25.9232 7.38901 26.0109C7.16098 26.0986 7.00311 26.2564 6.88033 26.4669C6.75754 26.6773 6.74 26.9053 6.77508 27.1333C6.82771 27.3613 6.98557 27.5542 7.28376 27.7121L11.6514 30.0446Z" fill="black"/>
<path d="M18.5097 23.5732L11.1602 16.8037L14.0368 13.6644L15.0367 14.5764L13.1072 16.6634L15.2647 18.6451L16.9486 16.8387L17.9484 17.7507L16.282 19.5746L18.4396 21.5564L20.3515 19.4694L21.4039 20.4339L18.5097 23.5732Z" fill="black"/>
<path d="M22.8598 19.066L16.7732 11.139L17.8607 10.2972L23.2457 13.7521L23.2633 13.7346L19.5972 8.96437L20.7374 8.08749L26.824 16.0145L25.754 16.8387L20.3515 13.4189L20.334 13.4365L24 18.1891L22.8598 19.066Z" fill="black"/>
<path d="M29.7183 14.3309L25.6489 6.70204L24.193 7.47369L23.5615 6.28114L27.7538 4.05386L28.3852 5.24642L26.9293 6.01807L30.9988 13.6469L29.7183 14.3309Z" fill="black"/>
<path d="M34.0508 12.2088L30.7532 2.77363L34.77 1.37062L35.2085 2.63333L32.5248 3.56282L33.4895 6.33376L35.8224 5.50949L36.261 6.78973L33.928 7.614L34.8928 10.3849L37.5765 9.45544L38.0501 10.8058L34.0508 12.2088Z" fill="black"/>
<path d="M40.0499 10.2972L38.3835 0.441121L40.6463 0.0552942C42.3127 -0.225307 43.2949 0.598959 43.6282 2.52809C43.7335 3.10683 43.7159 3.61542 43.6107 4.05386C43.5054 4.4923 43.2423 4.87813 42.8213 5.19381L45.1016 9.4379L43.6107 9.68343L41.5935 5.70239L40.7515 5.8427L41.4707 10.0517L40.0499 10.2972ZM40.0148 1.52845L40.5411 4.59753L41.3479 4.45723C41.5935 4.42215 41.7864 4.352 41.9268 4.24678C42.0671 4.15909 42.1548 4.03632 42.225 3.89602C42.2776 3.75572 42.2951 3.58035 42.2951 3.38743C42.2951 3.19452 42.26 2.96653 42.225 2.72101C42.1899 2.47548 42.1373 2.24749 42.0671 2.07212C41.9969 1.89674 41.9268 1.75644 41.8215 1.61614C41.611 1.38815 41.2427 1.318 40.7515 1.40569L40.0148 1.52845Z" fill="black"/>
</svg>
