<svg width="107" height="106" viewBox="0 0 107 106" fill="none" xmlns="http://www.w3.org/2000/svg">
<circle cx="52.5044" cy="48.5027" r="25.5" fill="#EDE284"/>
<g filter="url(#filter0_d)">
<path d="M57.9419 6.91248L57.9069 7.49122C57.8893 7.77182 57.8192 8.05242 57.6964 8.29795C57.556 8.54348 57.3806 8.77146 57.1877 8.96438C56.9772 9.15729 56.7492 9.29759 56.4861 9.40282C56.223 9.50804 55.9423 9.54312 55.6441 9.52558C55.381 9.50804 55.1354 9.45543 54.8723 9.36774C54.6092 9.28006 54.3812 9.13975 54.1882 8.94684C53.9953 8.75393 53.8374 8.52594 53.7146 8.24534C53.5918 7.96474 53.5568 7.59645 53.5743 7.17555L53.9076 2.03703C53.9251 1.7389 53.9953 1.45829 54.1181 1.19523C54.2408 0.932167 54.3987 0.721716 54.6092 0.54634C54.8197 0.370964 55.0477 0.230663 55.3284 0.142975C55.609 0.0552876 55.8897 -0.0148627 56.223 0.00267485C56.8544 0.03775 57.3456 0.283276 57.7139 0.721716C57.8893 0.932167 58.0296 1.17769 58.1173 1.45829C58.2051 1.75643 58.2401 2.05457 58.2226 2.38779L58.1875 2.91391L56.8544 2.82623L56.8895 2.38779C56.907 2.12472 56.8544 1.89673 56.7141 1.68628C56.5738 1.47583 56.3808 1.37061 56.1352 1.35307C55.802 1.33553 55.5739 1.42322 55.4512 1.61613C55.3284 1.80905 55.2582 2.07211 55.2407 2.38779L54.9425 7.15801C54.9249 7.42107 54.9776 7.6666 55.0828 7.85951C55.1881 8.05242 55.3985 8.15765 55.6967 8.17519C55.7844 8.17519 55.8721 8.17519 55.9774 8.14011C56.0826 8.12257 56.1703 8.06996 56.2756 7.99981C56.3633 7.92966 56.4334 7.84197 56.4861 7.71921C56.5387 7.59645 56.5738 7.45615 56.5913 7.26323L56.6264 6.80726L57.9419 6.91248Z" fill="black"/>
<path d="M59.8716 9.9114L61.9063 0.774323L63.2219 1.07246L61.4853 8.91176L64.0814 9.4905L63.7832 10.8058L59.8716 9.9114Z" fill="black"/>
<path d="M65.6775 11.4196L68.8348 2.59824L70.0978 3.05421L66.9404 11.8756L65.6775 11.4196Z" fill="black"/>
<path d="M74.2022 12.3141L73.9391 12.8227C73.7988 13.0857 73.6409 13.2962 73.4129 13.4715C73.2024 13.6469 72.9569 13.7872 72.6937 13.8749C72.4306 13.9801 72.1675 14.0328 71.8693 14.0152C71.5887 13.9977 71.308 13.9275 71.0449 13.7872C70.8169 13.6645 70.6064 13.5242 70.3959 13.3312C70.1854 13.1383 70.0451 12.9279 69.9398 12.6824C69.8346 12.4368 69.782 12.1562 69.782 11.8406C69.782 11.5249 69.8872 11.1917 70.0802 10.8058L72.4306 6.21099C72.571 5.93039 72.7464 5.7024 72.9569 5.52703C73.1673 5.33411 73.4129 5.21135 73.676 5.12366C73.9391 5.03597 74.2022 5.01844 74.5004 5.03597C74.7811 5.05351 75.0793 5.1412 75.3599 5.29904C75.9212 5.57964 76.2896 6.00054 76.4475 6.5442C76.5176 6.80727 76.5527 7.08787 76.5176 7.38601C76.4825 7.68415 76.3948 7.98229 76.2545 8.26289L76.0089 8.7364L74.8162 8.12259L75.0267 7.71922C75.1495 7.49123 75.1845 7.24571 75.1319 7.00018C75.0793 6.75466 74.9565 6.57928 74.7285 6.47405C74.4303 6.31622 74.1847 6.31622 73.9918 6.43898C73.7988 6.56174 73.6409 6.77219 73.4831 7.05279L71.308 11.3144C71.1852 11.56 71.1326 11.7879 71.1502 11.9984C71.1677 12.2088 71.3256 12.4018 71.5887 12.5421C71.6588 12.5771 71.7641 12.6122 71.8693 12.6297C71.9746 12.6473 72.0798 12.6473 72.1851 12.6297C72.2903 12.5947 72.3956 12.5421 72.4833 12.4544C72.5885 12.3667 72.6762 12.2439 72.7639 12.0861L72.9744 11.6827L74.2022 12.3141Z" fill="black"/>
<path d="M74.7986 15.8216L80.3765 8.29794L81.4641 9.10467L78.9031 12.5245L78.9207 12.542L83.0427 10.2797L84.1127 11.0864L80.4116 13.0156L78.8154 18.8205L77.6753 17.9611L78.9207 13.7171L77.5349 14.3835L75.8686 16.6283L74.7986 15.8216Z" fill="black"/>
<path d="M83.0779 23.2049L89.3224 18.0313L88.3401 16.8388L89.3048 16.032L92.1464 19.4519L91.1817 20.2586L90.1994 19.066L83.9549 24.2396L83.0779 23.2049Z" fill="black"/>
<path d="M91.8834 22.9068C92.1991 22.7139 92.5324 22.5911 92.8481 22.556C93.1638 22.5209 93.462 22.5385 93.7427 22.6262C94.0058 22.7139 94.2514 22.8366 94.4794 23.0295C94.7074 23.2224 94.8828 23.4154 95.0232 23.6433C95.1635 23.8713 95.2687 24.1344 95.3213 24.415C95.374 24.6956 95.3915 24.9762 95.3389 25.2568C95.2863 25.5374 95.1635 25.8005 94.9881 26.0635C94.8127 26.3266 94.5496 26.5546 94.2338 26.7475L89.989 29.308C89.6557 29.5184 89.3224 29.6237 89.0242 29.6587C88.7085 29.6938 88.4278 29.6587 88.1647 29.5886C87.8841 29.5009 87.6385 29.3606 87.4105 29.1852C87.1824 29.0098 87.007 28.7994 86.8667 28.5714C86.7264 28.3434 86.6211 28.0804 86.5685 27.7998C86.5159 27.5192 86.5159 27.2385 86.5685 26.9579C86.6211 26.6773 86.7264 26.3967 86.9018 26.1512C87.0772 25.8882 87.3228 25.6602 87.6736 25.4673L91.8834 22.9068ZM88.3401 26.6072C88.0595 26.7826 87.9016 26.9755 87.8665 27.2035C87.8315 27.4315 87.8665 27.6595 88.0069 27.8699C88.1296 28.0804 88.305 28.2207 88.5331 28.2908C88.7611 28.361 89.0067 28.3259 89.2873 28.1505L93.5146 25.59C93.7953 25.4146 93.9532 25.2217 93.9882 24.9937C94.0233 24.7658 93.9883 24.5378 93.8479 24.3273C93.7251 24.1169 93.5497 23.9766 93.3217 23.9064C93.0937 23.8363 92.8481 23.8713 92.5675 24.0467L88.3401 26.6072Z" fill="black"/>
<path d="M90.4099 35.8144L99.3732 33.1136L100.531 36.9368L99.3206 37.3051L98.5488 34.7621L95.9177 35.5513L96.5842 37.7611L95.3739 38.1294L94.7074 35.9196L92.0763 36.7088L92.8481 39.2518L91.5676 39.6376L90.4099 35.8144Z" fill="black"/>
<path d="M91.9536 41.4791L101.233 40.269L101.391 41.5492L96.0581 44.2851V44.3026L101.654 43.566L101.829 44.8989L92.55 46.109L92.3921 44.8638L97.707 42.1104V42.0753L92.129 42.8119L91.9536 41.4791Z" fill="black"/>
<path d="M92.6025 49.2482L100.706 49.4411L100.741 47.8978L102.004 47.9329L101.899 52.3699L100.636 52.3348L100.671 50.7915L92.5674 50.5986L92.6025 49.2482Z" fill="black"/>
<path d="M92.357 53.7729L101.601 55.3162L100.934 59.2622L99.689 59.0517L100.128 56.4386L97.4087 55.9826L97.0228 58.2625L95.7775 58.0521L96.1633 55.7722L93.4621 55.3162L93.0236 57.9293L91.708 57.7013L92.357 53.7729Z" fill="black"/>
<path d="M91.2343 59.5603L100.11 62.5417L99.4258 64.5936C98.9171 66.0843 97.7945 66.5402 96.058 65.9615C95.5318 65.7861 95.1108 65.5581 94.8126 65.2775C94.4969 64.9969 94.3039 64.6111 94.2162 64.1201H89.7083L90.1643 62.7697L94.3565 62.8574L94.6197 62.1032L90.8309 60.823L91.2343 59.5603ZM98.4786 63.4186L95.7072 62.4891L95.4616 63.2081C95.3914 63.4361 95.3564 63.629 95.3739 63.7693C95.3914 63.9271 95.4441 64.0499 95.5318 64.1727C95.6195 64.2779 95.7598 64.3656 95.9177 64.4533C96.0755 64.541 96.2685 64.6111 96.4965 64.6813C96.7245 64.7514 96.9175 64.804 97.0929 64.8391C97.2683 64.8742 97.4437 64.8742 97.584 64.8391C97.8647 64.7514 98.0927 64.5059 98.233 64.0674L98.4786 63.4186Z" fill="black"/>
<path d="M87.1122 74.0288L86.6211 73.7131C86.3755 73.5553 86.1826 73.3624 86.0247 73.1168C85.8668 72.8713 85.7616 72.6258 85.6914 72.3627C85.6213 72.0821 85.6213 71.8191 85.6563 71.5385C85.6914 71.2579 85.7967 70.9948 85.9721 70.7493C86.1124 70.5388 86.2878 70.3459 86.4808 70.153C86.6912 69.9776 86.9193 69.8373 87.1824 69.7672C87.4455 69.6795 87.7262 69.6619 88.0419 69.697C88.3576 69.7321 88.6733 69.8724 89.0417 70.1004L93.3567 72.9415C93.6198 73.1168 93.8303 73.3098 93.9882 73.5378C94.1461 73.7657 94.2513 74.0113 94.3215 74.2919C94.3741 74.5549 94.3741 74.8355 94.3215 75.1161C94.2688 75.3967 94.1461 75.6773 93.9706 75.9404C93.6198 76.4665 93.1638 76.7822 92.6025 76.8874C92.3218 76.94 92.0412 76.94 91.7605 76.8699C91.4623 76.8173 91.1817 76.6945 90.9186 76.5191L90.48 76.221L91.2168 75.0986L91.5851 75.3441C91.7956 75.4844 92.0412 75.5546 92.2867 75.537C92.5323 75.5195 92.7253 75.3967 92.8656 75.1863C93.041 74.9057 93.0761 74.6602 92.9708 74.4672C92.8656 74.2743 92.6726 74.0814 92.4095 73.906L88.4102 71.2754C88.1822 71.1176 87.9542 71.0474 87.7437 71.0474C87.5332 71.0474 87.3227 71.1702 87.1648 71.4332C87.1122 71.5034 87.0771 71.5911 87.0421 71.6963C87.007 71.8015 87.007 71.9068 87.007 72.012C87.0245 72.1172 87.0596 72.2224 87.1473 72.3277C87.235 72.4329 87.3403 72.5381 87.4806 72.6433L87.8665 72.8889L87.1122 74.0288Z" fill="black"/>
<path d="M83.5516 74.2217L90.4977 80.5177L89.6032 81.5174L83.6393 76.1158L81.8502 78.08L80.8503 77.1856L83.5516 74.2217Z" fill="black"/>
<path d="M79.3767 78.5184L85.4985 85.6036L84.4811 86.4805L78.3594 79.3953L79.3767 78.5184Z" fill="black"/>
<path d="M74.3953 85.4984L74.0796 85.0073C73.9217 84.7618 73.8165 84.4987 73.7638 84.2357C73.7112 83.9551 73.7112 83.692 73.7638 83.4114C73.8165 83.1308 73.9217 82.8853 74.062 82.6398C74.2023 82.3942 74.4128 82.2013 74.6584 82.0259C74.8689 81.8856 75.0969 81.7804 75.36 81.6927C75.6231 81.605 75.8863 81.57 76.1494 81.605C76.43 81.6401 76.6931 81.7278 76.9562 81.8856C77.2194 82.0435 77.4649 82.3065 77.7105 82.6573L80.5521 86.954C80.7275 87.2171 80.8327 87.4801 80.8854 87.7607C80.938 88.0413 80.938 88.3044 80.8854 88.585C80.8327 88.8656 80.7275 89.1111 80.5521 89.3391C80.3767 89.5671 80.1662 89.7951 79.9031 89.9705C79.3769 90.3212 78.8331 90.4265 78.2718 90.3037C77.9911 90.2335 77.7456 90.1283 77.5 89.9529C77.2544 89.7776 77.0439 89.5671 76.8685 89.2865L76.5703 88.8481L77.6929 88.1115L77.9385 88.4798C78.0788 88.7078 78.2718 88.8481 78.4998 88.9358C78.7279 89.0059 78.9559 88.9884 79.1664 88.8481C79.447 88.6727 79.5698 88.4622 79.5523 88.2167C79.5347 87.9887 79.4295 87.7432 79.2541 87.4801L76.623 83.4816C76.4826 83.2536 76.3072 83.0957 76.0967 83.0081C75.9038 82.9204 75.6758 82.9554 75.4127 83.1308C75.3425 83.1834 75.2723 83.236 75.2022 83.3237C75.132 83.4114 75.0794 83.4991 75.0443 83.6043C75.0092 83.7095 75.0092 83.8148 75.0443 83.9551C75.0618 84.0954 75.132 84.2357 75.2373 84.376L75.4828 84.7618L74.3953 85.4984Z" fill="black"/>
<path d="M71.0449 84.2883L74.8513 92.8466L73.6234 93.3903L71.8869 89.4794L71.8693 89.497L71.8167 94.197L70.5889 94.7407L70.7292 90.5667L66.4668 86.3227L67.7648 85.7439L70.852 88.9182L70.9572 87.3924L69.8171 84.832L71.0449 84.2883Z" fill="black"/>
<path d="M60.5206 87.8659L61.9238 95.8455L63.4499 95.5825L63.6604 96.8276L59.2752 97.5993L59.0647 96.3541L60.5907 96.0911L59.1875 88.1115L60.5206 87.8659Z" fill="black"/>
<path d="M56.4335 95.6527C56.451 96.0209 56.3809 96.3717 56.2581 96.6523C56.1353 96.9504 55.9599 97.196 55.7494 97.3889C55.5389 97.5818 55.3109 97.7221 55.0478 97.8273C54.7847 97.9325 54.5216 97.9851 54.2409 97.9851C53.9778 97.9851 53.6972 97.9501 53.434 97.8624C53.1709 97.7747 52.9254 97.6344 52.6973 97.459C52.4868 97.2661 52.3114 97.0381 52.1711 96.7575C52.0308 96.4769 51.9606 96.1437 51.9431 95.7579L51.8203 90.8123C51.8028 90.4264 51.8729 90.0757 51.9957 89.7951C52.1185 89.5145 52.2939 89.269 52.4868 89.0936C52.6973 88.9007 52.9429 88.7428 53.206 88.6376C53.4691 88.5324 53.7322 88.4798 54.0129 88.4798C54.276 88.4798 54.5566 88.5149 54.8198 88.6025C55.0829 88.6902 55.3284 88.8305 55.5565 89.0234C55.7845 89.1988 55.9599 89.4268 56.1002 89.7074C56.2406 89.988 56.3107 90.3212 56.3283 90.7071L56.4335 95.6527ZM54.9601 90.7421C54.9601 90.4089 54.8548 90.1809 54.6794 90.0406C54.504 89.9003 54.276 89.8126 54.0304 89.8302C53.7849 89.8302 53.5744 89.9179 53.399 90.0757C53.2236 90.2335 53.1358 90.4791 53.1534 90.7947L53.2762 95.7403C53.2762 96.0736 53.3814 96.3015 53.5568 96.4418C53.7322 96.5821 53.9603 96.6698 54.2058 96.6523C54.4514 96.6523 54.6619 96.5646 54.8373 96.4068C55.0127 96.2489 55.1004 96.0034 55.0829 95.6877L54.9601 90.7421Z" fill="black"/>
<path d="M45.9267 87.9887L43.8569 97.1258L39.9629 96.2489L40.2435 95.0213L42.8396 95.6L43.4535 92.9168L41.1907 92.4082L41.4714 91.1806L43.7341 91.6891L44.3481 89.0059L41.752 88.4272L42.0502 87.1118L45.9267 87.9887Z" fill="black"/>
<path d="M40.2787 86.5682L36.7705 95.2493L35.5778 94.7582L35.8233 88.7603L35.8058 88.7428L33.6834 93.969L32.438 93.4604L35.9461 84.7793L37.1214 85.2528L36.9109 91.2331L36.9284 91.2507L39.0508 86.0245L40.2787 86.5682Z" fill="black"/>
<path d="M33.1922 83.2886L29.0175 90.2335L30.3506 91.0402L29.7016 92.1276L25.8953 89.8302L26.5443 88.7428L27.8774 89.5496L32.0521 82.6047L33.1922 83.2886Z" fill="black"/>
<path d="M29.3506 80.8158L23.4394 88.0764L20.3347 85.551L21.1416 84.5689L23.1939 86.2525L24.9304 84.1304L23.1412 82.6748L23.9481 81.6927L25.7373 83.1483L27.4738 81.0263L25.4215 79.3427L26.2635 78.308L29.3506 80.8158Z" fill="black"/>
<path d="M24.8779 76.9751L17.8967 83.2185L16.4583 81.605C15.4059 80.43 15.5638 79.2374 16.9319 78.0098C17.3354 77.6415 17.7564 77.396 18.1598 77.2557C18.5632 77.1329 19.0018 77.1505 19.4578 77.3083L21.6855 73.3799L22.6327 74.4321L20.4576 78.0449L21.0014 78.6412L23.9833 75.9754L24.8779 76.9751ZM17.9318 81.377L20.1068 79.4304L19.5981 78.8691C19.4403 78.6938 19.2999 78.571 19.1421 78.5184C19.0018 78.4658 18.8614 78.4307 18.7036 78.4658C18.5632 78.5009 18.4229 78.5535 18.265 78.6587C18.1072 78.7639 17.9493 78.8867 17.7739 79.0445C17.5985 79.2024 17.4582 79.3427 17.3354 79.483C17.2126 79.6233 17.1424 79.7636 17.0898 79.9039C17.0197 80.1845 17.1424 80.5001 17.4406 80.8509L17.9318 81.377Z" fill="black"/>
<path d="M14.3358 66.2947L14.8445 66.0316C15.1076 65.8913 15.3707 65.8212 15.6514 65.8037C15.932 65.7861 16.2127 65.8037 16.4758 65.8913C16.7389 65.979 16.9845 66.1018 17.2125 66.2772C17.4405 66.4525 17.6159 66.6805 17.7563 66.9436C17.879 67.1716 17.9667 67.4171 18.0194 67.6802C18.072 67.9432 18.072 68.2063 18.0194 68.4869C17.9667 68.75 17.844 69.013 17.651 69.2586C17.4756 69.5041 17.1774 69.7321 16.8091 69.925L12.2309 72.275C11.9503 72.4153 11.6872 72.503 11.4065 72.5205C11.1259 72.5556 10.8452 72.5205 10.5996 72.4329C10.3365 72.3452 10.091 72.2224 9.88048 72.0295C9.66999 71.8366 9.47704 71.6086 9.33671 71.3105C9.03852 70.7492 9.00344 70.2056 9.17885 69.6619C9.26655 69.3989 9.40688 69.1533 9.61736 68.9253C9.81031 68.6974 10.0559 68.522 10.3365 68.3641L10.8101 68.1186L11.4241 69.3112L11.0206 69.5216C10.7926 69.6444 10.6172 69.8198 10.5119 70.0302C10.4067 70.2582 10.4242 70.4687 10.5295 70.6966C10.6873 70.9948 10.8803 71.1351 11.1083 71.1526C11.3364 71.1526 11.5995 71.0825 11.8801 70.9422L16.1425 68.75C16.3881 68.6272 16.5635 68.4694 16.6687 68.2765C16.774 68.0835 16.7564 67.8555 16.6161 67.5749C16.581 67.5048 16.5109 67.4171 16.4407 67.347C16.3705 67.2768 16.2828 67.2067 16.1776 67.1716C16.0724 67.1365 15.9671 67.119 15.8268 67.1365C15.6865 67.154 15.5461 67.1891 15.3883 67.2768L14.9848 67.4873L14.3358 66.2947Z" fill="black"/>
<path d="M15.8969 63.0853L7.00374 66.0141L6.58276 64.7339L14.1954 62.226L13.371 59.7006L14.6515 59.2797L15.8969 63.0853Z" fill="black"/>
<path d="M14.2306 57.298L5.03923 59.1043L4.77612 57.789L13.9675 55.9826L14.2306 57.298Z" fill="black"/>
<path d="M10.6348 49.5288L11.2136 49.4937C11.5118 49.4762 11.7749 49.5113 12.038 49.5989C12.3012 49.6866 12.5467 49.8269 12.7572 50.0023C12.9677 50.1777 13.1431 50.4057 13.2834 50.6512C13.4238 50.8967 13.4939 51.1773 13.5115 51.4755C13.529 51.7385 13.5115 51.9841 13.4588 52.2647C13.4062 52.5277 13.301 52.7732 13.1431 53.0012C12.9852 53.2292 12.7748 53.4046 12.4941 53.5624C12.2135 53.7203 11.8802 53.808 11.4592 53.8255L6.31977 54.1587C6.02158 54.1763 5.72339 54.1412 5.46028 54.0535C5.19716 53.9658 4.95159 53.8255 4.74111 53.6501C4.53062 53.4747 4.37275 53.2468 4.24997 52.9837C4.10964 52.7382 4.03948 52.44 4.0044 52.1244C3.96931 51.493 4.14472 50.9669 4.51308 50.546C4.70602 50.3355 4.93405 50.1777 5.19716 50.0549C5.46028 49.9322 5.75847 49.862 6.09174 49.8269L6.61796 49.7919L6.70567 51.1247L6.26715 51.1598C6.00404 51.1773 5.77601 51.265 5.6006 51.4229C5.42519 51.5807 5.33749 51.7911 5.35503 52.0367C5.37257 52.3699 5.49536 52.5803 5.70585 52.6856C5.91633 52.7732 6.17944 52.8259 6.49518 52.7908L11.2663 52.4751C11.5469 52.4576 11.7574 52.3874 11.9328 52.2471C12.1082 52.1068 12.1784 51.8964 12.1608 51.5982C12.1608 51.5105 12.1257 51.4229 12.0907 51.3176C12.0556 51.2124 12.003 51.1247 11.9153 51.037C11.8451 50.9669 11.7399 50.8967 11.6171 50.8617C11.4943 50.809 11.3364 50.809 11.161 50.809L10.7049 50.8441L10.6348 49.5288Z" fill="black"/>
<path d="M13.3361 47.2665L4.00439 46.3545L4.12718 45.0217L8.38957 45.425V45.4075L4.32013 43.0399L4.44291 41.7071L8.00368 43.8817L13.8097 42.2683L13.6693 43.6888L9.3894 44.8112L10.6699 45.653L13.4588 45.9161L13.3361 47.2665Z" fill="black"/>
<path d="M15.4058 36.323L7.77563 33.6047L7.24941 35.0603L6.05664 34.6394L7.5476 30.4479L8.74037 30.8688L8.21415 32.3244L15.8444 35.0428L15.4058 36.323Z" fill="black"/>
<path d="M10.6523 28.9046C10.319 28.7292 10.0559 28.5188 9.86297 28.2557C9.67002 28.0102 9.54723 27.7296 9.47707 27.449C9.40691 27.1684 9.40691 26.9053 9.44199 26.6247C9.47707 26.3441 9.56477 26.0811 9.7051 25.8355C9.84543 25.59 10.0033 25.3796 10.2138 25.1866C10.4243 24.9937 10.6698 24.8534 10.933 24.7482C11.1961 24.6605 11.4943 24.6254 11.81 24.643C12.1257 24.6605 12.4415 24.7482 12.7747 24.9236L17.1424 27.2561C17.4932 27.449 17.7563 27.6594 17.9492 27.905C18.1422 28.1505 18.265 28.4136 18.3176 28.6942C18.3878 28.9748 18.3878 29.2554 18.3527 29.536C18.3176 29.8166 18.2299 30.0796 18.1071 30.3252C17.9843 30.5707 17.8089 30.7811 17.5984 30.974C17.3879 31.167 17.1424 31.3073 16.8793 31.3949C16.6161 31.5002 16.318 31.5528 16.0198 31.5352C15.704 31.5177 15.3883 31.4125 15.0375 31.2371L10.6523 28.9046ZM15.6514 30.0446C15.9321 30.2024 16.1952 30.2375 16.4057 30.1498C16.6161 30.0621 16.7916 29.9043 16.9143 29.6938C17.0371 29.4834 17.0547 29.2554 17.0196 29.0274C16.967 28.7994 16.8091 28.6065 16.5109 28.4486L12.1433 26.1161C11.8626 25.9583 11.5995 25.9232 11.389 26.0109C11.161 26.0986 11.0031 26.2564 10.8803 26.4669C10.7575 26.6773 10.74 26.9053 10.7751 27.1333C10.8277 27.3613 10.9856 27.5542 11.2838 27.7121L15.6514 30.0446Z" fill="black"/>
<path d="M22.5097 23.5732L15.1602 16.8037L18.0368 13.6644L19.0367 14.5764L17.1072 16.6634L19.2647 18.6451L20.9486 16.8387L21.9484 17.7507L20.282 19.5746L22.4396 21.5564L24.3515 19.4694L25.4039 20.4339L22.5097 23.5732Z" fill="black"/>
<path d="M26.8598 19.066L20.7732 11.139L21.8607 10.2972L27.2457 13.7521L27.2633 13.7346L23.5972 8.96437L24.7374 8.08749L30.824 16.0145L29.754 16.8387L24.3515 13.4189L24.334 13.4365L28 18.1891L26.8598 19.066Z" fill="black"/>
<path d="M33.7183 14.3309L29.6489 6.70204L28.193 7.47369L27.5615 6.28114L31.7538 4.05386L32.3852 5.24642L30.9293 6.01807L34.9988 13.6469L33.7183 14.3309Z" fill="black"/>
<path d="M38.0508 12.2088L34.7532 2.77363L38.77 1.37062L39.2085 2.63333L36.5248 3.56282L37.4895 6.33376L39.8224 5.50949L40.261 6.78973L37.928 7.614L38.8928 10.3849L41.5765 9.45544L42.0501 10.8058L38.0508 12.2088Z" fill="black"/>
<path d="M44.0499 10.2972L42.3835 0.441121L44.6463 0.0552942C46.3127 -0.225307 47.2949 0.598959 47.6282 2.52809C47.7335 3.10683 47.7159 3.61542 47.6107 4.05386C47.5054 4.4923 47.2423 4.87813 46.8213 5.19381L49.1016 9.4379L47.6107 9.68343L45.5935 5.70239L44.7515 5.8427L45.4707 10.0517L44.0499 10.2972ZM44.0148 1.52845L44.5411 4.59753L45.3479 4.45723C45.5935 4.42215 45.7864 4.352 45.9268 4.24678C46.0671 4.15909 46.1548 4.03632 46.225 3.89602C46.2776 3.75572 46.2951 3.58035 46.2951 3.38743C46.2951 3.19452 46.26 2.96653 46.225 2.72101C46.1899 2.47548 46.1373 2.24749 46.0671 2.07212C45.9969 1.89674 45.9268 1.75644 45.8215 1.61614C45.611 1.38815 45.2427 1.318 44.7515 1.40569L44.0148 1.52845Z" fill="black"/>
</g>
<defs>
<filter id="filter0_d" x="0" y="-3.05176e-05" width="106.004" height="105.985" filterUnits="userSpaceOnUse" color-interpolation-filters="sRGB">
<feFlood flood-opacity="0" result="BackgroundImageFix"/>
<feColorMatrix in="SourceAlpha" type="matrix" values="0 0 0 0 0 0 0 0 0 0 0 0 0 0 0 0 0 0 127 0"/>
<feOffset dy="4"/>
<feGaussianBlur stdDeviation="2"/>
<feColorMatrix type="matrix" values="0 0 0 0 0 0 0 0 0 0 0 0 0 0 0 0 0 0 0.25 0"/>
<feBlend mode="normal" in2="BackgroundImageFix" result="effect1_dropShadow"/>
<feBlend mode="normal" in="SourceGraphic" in2="effect1_dropShadow" result="shape"/>
</filter>
</defs>
</svg>
