<svg width="511" height="139" viewBox="0 0 511 139" fill="none" xmlns="http://www.w3.org/2000/svg">
<path d="M94.3002 46.4C95.5002 46.3 97.0002 45.9 97.3002 45.6C99.5002 44.8 100.4 43.9 100.4 42.2C100.2 40.6 99.5002 39.8 98.3002 39.8C97.7002 39.8 97.3002 39.9 96.8002 40C93.5002 40.7 91.8002 41.9 91.8002 43.7C91.8002 45.2 92.2002 46 94.3002 46.4ZM134.9 77.6L135.7 77.2C135.5 77.2 135.2 77.3 134.9 77.3V77.6ZM166.3 46.6C167.5 46.5 168.2 45.7 168.5 45.5C169.6 43.4 171.8 43.9 171.8 42C171.6 40.3 170.9 39.5 169.7 39.5C169.1 39.5 168.7 39.6 168.2 39.7C164.9 40.4 163.2 41.8 163.2 43.6C163.2 45.1 164.2 46.1 166.3 46.6ZM234.5 56.2C234 56.2 233.3 56.3 232.3 56.5C227.2 61.4 222.6 63.8 218.4 63.8C214 63.8 210.9 61.8 209.2 57.7C208.2 53.1 207.6 50.4 207.4 49.8C206.3 47.4 204.4 46.2 201.7 46.2L199.8 46.1C195.7 46.2 192.1 47.7 189 50.6C186.7 53 185.1 55.4 184.2 57.8C182.6 59.5 181.2 61.1 179.8 62.4C178.6 63.1 177.9 63.7 177.6 64.3C169.9 71.2 163.9 74.7 159.7 74.7C158.1 74.7 157.4 74.2 157.4 73.2C157.4 71.1 158.1 68.7 159.6 66.1C160.7 65.1 161.8 62.8 163 59.2V58.2C163 57 162.3 56.2 160.8 55.9H160.6C159.6 55.9 159.1 56 159.1 56.2C159.1 56.2 159 56.3 158.9 56.5C158.5 56.7 158.3 57 158.3 57.3C154.7 62.3 150.7 66.4 146.3 69.6C140.9 72.3 135.8 73.7 130.9 73.7C128.3 73.5 126.3 73.2 124.9 72.6C119.8 70.2 117.2 67.3 117.2 64C117.2 61.3 118.2 58.5 120.2 55.5C123.9 52.1 126.8 50.5 129 50.5H130.4C130.6 50.5 131.1 50.6 131.7 50.9C133.4 52.8 134.7 53.7 135.6 53.7C136.7 53.4 137.3 52.7 137.3 51.7V51.2C135.6 48.2 133.5 46.7 130.9 46.7C128.5 46.7 126.5 47 124.7 47.8C119.7 50.1 116.3 53 114.5 56.5H114.3C112.3 58.9 110.4 60.9 108.6 62.5C107.4 63.2 106.7 63.8 106.4 64.3C98.7002 71.3 92.7002 74.8 88.5002 74.8C86.9002 74.8 86.2002 74.3 86.2002 73.3C86.2002 71.2 86.9002 68.8 88.4002 66.2C89.5002 65.2 90.6002 62.9 91.8002 59.3V58.3C91.8002 57.1 91.1002 56.3 89.6002 56H89.0002C88.0002 56 87.5002 56.1 87.5002 56.3C87.5002 56.3 87.4002 56.4 87.3002 56.6C86.6002 56.8 85.7002 57.5 84.8002 58.6C83.1002 60.4 80.3002 63.1 76.2002 66.8C71.5002 69.4 68.0002 70.7 65.6002 70.9H63.8002C61.7002 70.9 59.7002 70 57.8002 68.1C56.0002 65.3 55.1002 63.2 55.1002 61.8V61.4C55.1002 60.3 55.7002 59.1 57.0002 57.8C63.7002 47.6 68.2002 39.6 70.6002 33.8C76.7002 19.1 79.7002 9.3 79.7002 4.3V4.2C79.7002 2.4 79.0002 1.2 77.6002 0.5H77.1002C75.2002 0.5 73.6002 1.4 72.0002 3.1C71.2002 4.7 70.5002 5.8 69.9002 6.5C69.7002 6.5 68.2002 8.8 65.5002 13.5C61.8002 19.8 58.4002 27.7 55.2002 37.1C53.7002 40.3 52.9002 42.4 52.9002 43.3C51.1002 47.8 50.0002 52.2 49.6002 56.5C49.6002 56.5 49.6002 56.5 49.5002 56.5C44.4002 61.4 39.8002 63.8 35.6002 63.8C31.2002 63.8 28.1002 61.8 26.4002 57.7C25.4002 53.1 24.8002 50.4 24.6002 49.8C23.5002 47.4 21.6002 46.2 18.9002 46.2L17.0002 46.1C12.9002 46.2 9.3002 47.7 6.2002 50.6C2.3002 54.7 0.300195 58.8 0.200195 62.9C0.200195 63.7 0.400195 64.6 0.700195 65.6C2.4002 69.1 4.8002 70.9 7.9002 70.9H8.00019C12.1002 70.9 16.0002 68.5 19.5002 63.8C21.1002 61 21.8002 59.6 21.7002 59.6L22.0002 59.8C24.8002 65.5 29.3002 68.3 35.5002 68.3H36.1002C36.7002 68.3 37.4002 68.3 38.5002 68.2C43.1002 67 47.0002 65.1 49.9002 62.5C50.0002 62.8 50.0002 63.1 50.1002 63.4C52.4002 71.1 57.1002 75 64.0002 75C69.2002 75 74.4002 73.1 79.6002 69.4C80.6002 68.5 81.6002 67.7 82.5002 67C81.7002 69.6 81.3002 71.7 81.3002 73.1C81.3002 77.3 83.5002 79.4 88.0002 79.4C93.8002 79.4 101 75.5 109.6 67.6C110.6 66.9 111.6 66.1 112.4 65.4C112.8 68.4 114.9 71.3 118.6 74.1C122.2 76.5 126.2 77.8 130.5 77.8C131.3 77.8 132.8 77.6 135 77.2H135.7C137.3 77 138.3 76.8 138.5 76.7C144.6 75.4 149.1 73.3 152 70.3C152.4 69.9 152.8 69.5 153.2 69.2C152.8 70.7 152.6 72 152.6 73C152.6 77.2 154.8 79.3 159.3 79.3C165.1 79.3 172.3 75.4 180.9 67.5C181.8 66.8 182.7 66.2 183.4 65.5C185.1 69 187.5 70.8 190.6 70.8H190.7C194.8 70.8 198.7 68.4 202.2 63.7C203.8 60.9 204.5 59.5 204.4 59.5L204.7 59.7C207.5 65.4 211.9 68.2 218.2 68.2H218.8C219.4 68.2 220.1 68.2 221.2 68.1C225.9 66.9 229.8 65 232.8 62.3C235 60.7 236.2 59.3 236.2 58.1C236.1 57.4 235.6 56.7 234.5 56.2ZM20.1002 51.2C20.1002 52 19.6002 53.6 18.6002 56C15.2002 63.1 11.8002 66.7 8.50019 66.7H7.80019C5.80019 66.1 4.80019 64.6 4.80019 62.3C4.80019 60.9 5.3002 59.3 6.4002 57.8C9.2002 52.8 13.0002 50.4 17.9002 50.5C19.3002 50.6 20.1002 50.6 20.1002 50.5V51.2ZM74.2002 7.2C74.2002 7 74.2002 7 74.2002 7.2V7.2ZM56.7002 46C60.7002 34.5 64.3002 25.6 67.6002 19.3C70.9002 12.8 73.2002 8.9 74.3002 7.6C74.3002 7.7 74.3002 7.7 74.3002 7.8C74.3002 9.1 73.4002 12.8 71.6002 18.8C67.5002 29.9 63.8002 38.2 60.5002 43.8C57.7002 48.7 55.8002 51.8 54.9002 53.1C54.9002 52.9 54.9002 52.8 54.8002 52.7C55.3002 50.6 55.9002 48.3 56.7002 46ZM202.8 51.2C202.8 52 202.3 53.6 201.3 56C197.9 63.1 194.5 66.7 191.2 66.7H190.5C188.5 66.1 187.5 64.6 187.5 62.3C187.5 61.9 187.5 61.5 187.6 61.1C188.4 60.1 188.9 59.3 188.9 58.8V58.5C188.9 58.4 188.9 58.3 188.8 58.2C188.9 58 189 57.9 189.1 57.7C191.9 52.7 195.7 50.3 200.6 50.4C202 50.5 202.8 50.5 202.8 50.4V51.2ZM509.6 56.8C509.2 56.8 508.6 56.9 507.9 57C504.4 59.1 499.1 64.4 491.9 72.8C489.8 75.3 488.5 76.8 487.9 77.3C487.8 77.1 487.8 76.8 487.8 76.3V73.9C487.8 72 488.2 68.7 489 63.9V63.7C489 62.5 488.3 61.8 486.9 61.6H486.6C485.5 61.6 484.3 62.8 483 65.1C479.7 70.4 477.3 73.2 475.8 73.5C475.7 73.4 475.5 73.4 475.3 73.4C474.3 73 473.8 71.8 473.8 70.1C473.9 69.9 474 68.9 474.1 67.1C474.8 64.5 475.4 62.4 475.9 60.7C476.8 59.6 477.4 58.6 477.6 57.7C477.4 57.2 477.2 56.8 476.9 56.5C476.9 56.4 476.9 56.2 476.9 56.2C476.5 55.2 475.8 54.7 474.9 54.7C474.3 54.9 473.7 55.2 473.2 55.6C472.9 56.4 472.6 57.2 472.3 58C472.1 58.3 471.9 58.6 471.8 58.9C464 66.8 455.5 70.7 446.3 70.7H445.1C442.3 70.7 439.8 70.1 437.7 69C435.6 67.8 434.1 65.6 433.1 62.4V62C433.1 61.9 433.2 61.8 433.3 61.7C439.4 59.8 443 58.6 444.1 58C449 54.8 451.7 51.8 452.2 48.8C452.2 46.7 450.5 45.4 447.1 44.9H446.5C445.1 44.9 443.5 45.3 441.8 46.2C439.4 46.7 436.2 48.9 432.2 52.6C430.8 54.7 429.8 56.5 429.1 57.9C428.9 58.1 428.7 58.3 428.5 58.5C426.8 60.3 424 63 419.9 66.7C415.2 69.3 411.7 70.6 409.3 70.8H407.5C405.4 70.8 403.4 69.9 401.5 68C399.7 65.2 398.8 63.1 398.8 61.7V61.3C398.8 60.2 399.4 59 400.7 57.7C407.4 47.5 411.9 39.5 414.3 33.7C420.4 19 423.4 9.2 423.4 4.3V4.2C423.4 2.4 422.7 1.2 421.3 0.5H420.8C418.9 0.5 417.3 1.4 415.7 3.1C414.9 4.7 414.2 5.8 413.6 6.5C413.4 6.5 411.9 8.8 409.2 13.5C405.5 19.8 402.1 27.7 398.9 37.1C397.4 40.3 396.6 42.4 396.6 43.3C394.7 48 393.6 52.6 393.2 57.1C392.2 57.8 391.3 59.2 390.3 61.3C386.5 67.3 383.2 71.7 380.4 74.5C376.6 77.5 373.6 79 371.2 79H370.6C370.3 79 370 78.9 369.6 78.7C367.4 77.7 366.2 75.2 366 71.2C366 67.7 367.5 62.4 370.6 55.3C372.7 52.2 373.9 50.3 374.3 49.3C374.3 48 373.6 47.2 372.2 47H371C365.1 49.8 360.6 51.7 357.6 52.6C355.4 53.5 354.1 54.2 353.6 54.8L352.3 56.9C352.3 56.9 352.3 56.9 352.3 57C352.3 57 352.2 57 352.2 57.1C343.5 63.8 335.4 67.2 328.2 67.2H326.1C325.7 67.2 325.4 67.1 325.4 66.8C325.8 65.2 326 63.8 326 62.5C326 61.5 325.8 60.4 325.4 59.3C324.2 56.5 321.8 55.1 318.1 55.1C316.7 55.1 315 55.4 313 56.1C312.9 56.2 312.7 56.3 312.6 56.4C311.6 56.5 310.6 57.3 309.5 58.9C307.4 60.9 305.9 63 305 65.3C304.1 66.2 303.1 67.1 302 68.1C298.5 71.6 294.8 73.3 290.9 73.3H290.5C289.1 73.3 286.9 72.2 283.9 70.1C282.6 69 281.5 67.7 280.7 66C278.9 62.7 276.5 61.1 273.7 61.1C271.6 61.1 269.5 62 267.3 63.9C266.5 65.2 265.9 66.1 265.5 66.5C264.4 62.8 262.4 60.9 259.4 60.9H258C256.8 60.9 255 61.6 252.9 63C251.9 63.9 251.2 64.6 250.8 65C251.1 64.2 251.5 63.1 252.1 61.5C253.9 58 254.8 56 254.8 55.6V55.2C254.8 54.5 254.2 54 252.9 53.8C251.6 53.8 250.4 54.9 249.3 57.2C245.8 64.2 242.8 71.3 240.5 78.3C240.5 79.7 241.2 80.5 242.7 80.7H242.9C243.6 80.7 244.5 80 245.8 78.7C252.1 69.6 256.3 65 258.5 65H258.6C258.7 65 258.7 65.1 258.7 65.3C259.6 65.3 260.3 67.1 260.8 70.8C261 75.6 262 78 263.8 78L264.5 77.9C265.2 77.9 266.3 76.1 267.9 72.4C269.6 67.6 271.4 65.3 273.4 65.3H273.7C274.4 65.3 275.9 67.1 278.2 70.7C282.5 75.2 286.7 77.4 290.7 77.4H292.6C295.8 77.4 299.6 75.7 303.9 72.2C303.9 72.7 304 73.2 304 73.7C305.2 77.3 307.4 79.1 310.5 79.1H311.7C315.3 79.1 318.6 77.3 321.6 73.7C322.7 72 323.5 71.1 324 71.1C324.3 71.1 324.8 71.1 325.5 71.2C334.5 71.2 343 68.5 351 63.2C354.8 60.8 356.8 59 357 57.8C358.1 57 359.1 56.4 359.9 56.1C362.6 55 364.4 54.3 365.5 54.2V54.3L364.6 57.2C362.3 62.2 361.2 66.9 361.2 71.4C361.2 73.8 361.5 75.5 362 76.7C364.3 81.1 367.2 83.3 370.7 83.3H370.9C374.1 82.9 376.6 82.2 378.4 81.2C383.5 77.7 387.2 74.1 389.4 70.5C391.2 67.9 392.6 65.8 393.7 64C396.1 71.1 400.6 74.6 407.3 74.6C412.5 74.6 417.7 72.7 422.9 69C425.1 67.2 426.9 65.6 428.4 64.2C428.6 65 428.9 65.4 429.1 65.4C430.5 67.8 432.5 70 435 72C439.2 73.6 442.3 74.3 444.4 74.3C446.4 74.1 447.7 74 448.1 74C452.1 74 457.9 72.3 465.3 69C466.8 67.9 468.1 66.9 469.2 66C468.9 67.3 468.8 68.4 468.8 69.4V71.2C469.7 75.1 471.4 77 474.1 77C475.7 77 477.2 76.6 478.7 75.7C481.1 73.4 482.4 72.2 482.6 72.1C482.6 72.2 482.6 72.3 482.6 72.6C482.5 73.4 482.5 73.9 482.5 74C482.5 75.2 482.6 77.9 482.8 82.3L482.5 84C478.3 90.6 474.4 97.3 470.9 104.2C466.5 113.9 464.2 120.9 463.8 125.2C463.6 126.1 463.5 127.4 463.4 129.1C463.4 135.1 465.5 138.1 469.6 138.1H470.4C471.7 138.1 473.3 137.6 475.1 136.7C477.4 135.5 479.5 133.4 481.5 130.4C483 127.7 484.7 123.2 486.3 117.5C487.8 108.3 488.6 101.6 488.6 97.4C488.1 91.6 487.9 87.5 487.9 85.1C487.9 83.5 490.8 79.4 496.7 72.7C500.7 67.9 504.4 64.2 507.7 61.5C509.8 60.2 510.8 59 510.8 58C511.3 57.7 510.7 57.1 509.6 56.8ZM318.9 70.5C316.6 73.8 314.2 75.4 311.9 75.4C311.4 75.4 311 75.3 310.7 75.2C309.2 74.5 308.4 73.2 308.4 71.2C308.6 69.7 308.7 68.9 308.7 68.8C308.8 68.5 308.9 68.3 309 68C310.2 66.6 311.3 65.3 312.2 64C313 65.9 314.2 67.4 315.8 68.4C317.9 69.5 319 70 319 70.1L318.9 70.5ZM321.1 66.2H321C320.7 66.2 320.2 66 319.5 65.6C317.6 64.5 316.6 63.4 316.6 62.3C316.6 60.6 317.5 59.7 319.4 59.5C321 59.5 321.8 60.5 321.8 62.6C321.4 65.1 321.2 66.2 321.1 66.2ZM418 7.2C417.9 7 417.9 7 418 7.2V7.2ZM400.4 46C404.4 34.5 408 25.6 411.3 19.3C414.6 12.8 416.9 8.9 418 7.6C418 7.7 418 7.7 418 7.8C418 9.1 417.1 12.8 415.3 18.8C411.2 29.9 407.5 38.2 404.2 43.8C401.4 48.7 399.5 51.8 398.6 53.1C398.6 52.9 398.6 52.8 398.5 52.7C399.1 50.6 399.7 48.3 400.4 46ZM446.3 48.9H446.6C446.8 48.9 447 49 447 49.1C447 49.9 445.2 51.7 441.7 54.3C438.3 55.9 436 56.7 434.6 56.8C434.7 56.5 435.1 55.8 436 54.8C438.3 52 441.8 50 446.3 48.9ZM483.5 107.4C483.6 107.4 483.6 107.3 483.7 107.2L482.7 114.1H482.8C480 127.7 476.1 134.5 471.2 134.5H470.5C469.6 134.5 469 132.9 468.7 129.6C468.7 125.8 469.6 121.4 471.4 116.4C474.3 108.7 477.9 101.4 482.2 94.3C483.3 92.2 484 91.1 484.1 91.1C484.3 91.1 484.3 93.6 484.3 98.5C484.3 100.2 484.1 103.2 483.5 107.4Z" fill="black"/>
</svg>
