<svg width="98" height="98" viewBox="0 0 98 98" fill="none" xmlns="http://www.w3.org/2000/svg">
<ellipse cx="49.0001" cy="49.0074" rx="25" ry="25.0038" fill="#EDE284"/>
<path d="M49.1501 43L55.0001 48.6842M49.1501 55L55.0001 48.6842M55.0001 48.6842H42.0001" stroke="black" stroke-width="1.2"/>
<path d="M49.5703 9.3492L50.1669 0L52.1848 0.122785C52.5533 0.140326 52.8691 0.210489 53.1499 0.333274C53.4307 0.456059 53.6588 0.631466 53.8869 0.894577C54.0974 1.15769 54.2378 1.45588 54.308 1.78915C54.3782 2.12243 54.3957 2.57849 54.3606 3.12225C54.3431 3.54323 54.2905 3.89404 54.2203 4.17469C54.1501 4.45534 54.0273 4.71845 53.8518 4.96402C53.6412 5.26222 53.3956 5.4727 53.0622 5.63057C52.7463 5.78844 52.3427 5.84106 51.8339 5.80598L51.1495 5.78844L50.9214 9.43691L49.5703 9.3492ZM51.4303 1.35064L51.2373 4.52551L51.8865 4.56059C52.1673 4.57813 52.3778 4.56059 52.5182 4.49042C52.6761 4.42026 52.7814 4.31502 52.8691 4.19223C52.9393 4.06945 53.0095 3.91158 53.0271 3.71863C53.0446 3.52568 53.0797 3.3152 53.0973 3.06963C53.1148 2.85914 53.1148 2.64865 53.1324 2.43816C53.1324 2.24521 53.1148 2.06981 53.0446 1.91194C52.9744 1.75407 52.8867 1.63129 52.7463 1.54358C52.6059 1.45588 52.4129 1.40326 52.1497 1.38572L51.4303 1.35064Z" fill="black"/>
<path d="M58.1859 3.0872C58.2736 2.71885 58.414 2.42065 58.6246 2.15754C58.8176 1.91197 59.0457 1.71903 59.3089 1.5787C59.5545 1.45591 59.8178 1.36821 60.116 1.35067C60.3968 1.31559 60.6776 1.33313 60.9408 1.40329C61.204 1.47346 61.4496 1.5787 61.6953 1.73657C61.9409 1.89443 62.134 2.08738 62.3094 2.31541C62.4673 2.56098 62.5726 2.82409 62.6253 3.13982C62.6779 3.45556 62.6604 3.78883 62.5726 4.15719L61.3794 8.96334C61.2917 9.34924 61.1338 9.66497 60.9408 9.893C60.7477 10.121 60.5196 10.314 60.274 10.4368C60.0108 10.5771 59.7476 10.6473 59.4668 10.6823C59.1861 10.7174 58.9053 10.6999 58.6421 10.6297C58.3789 10.5595 58.1332 10.4543 57.8876 10.2964C57.6595 10.1386 57.4489 9.94562 57.291 9.70005C57.1155 9.47202 57.0102 9.19137 56.9576 8.89318C56.9049 8.59499 56.9225 8.24417 57.0102 7.85828L58.1859 3.0872ZM58.2912 8.20909C58.221 8.52483 58.2561 8.7704 58.3964 8.96334C58.5368 9.15629 58.7123 9.27908 58.9579 9.34924C59.2036 9.40186 59.4142 9.38432 59.6247 9.27908C59.8353 9.17383 59.9757 8.96334 60.0634 8.64761L61.2566 3.84145C61.3268 3.52572 61.3093 3.28015 61.1689 3.0872C61.0285 2.89425 60.8355 2.77147 60.6074 2.70131C60.3793 2.63114 60.1511 2.66622 59.9406 2.77147C59.73 2.87671 59.5896 3.0872 59.5019 3.40294L58.2912 8.20909Z" fill="black"/>
<path d="M63.485 12.0505L67.3629 3.5257L69.3281 4.42027C70.767 5.06928 71.1004 6.24451 70.3459 7.91088C70.1177 8.41956 69.837 8.80545 69.5211 9.0861C69.2053 9.36676 68.8017 9.52462 68.3104 9.5597L67.8542 14.0501L66.5557 13.4537L67.0821 9.29659L66.3451 8.96332L64.6782 12.5942L63.485 12.0505ZM68.0648 5.22715L66.854 7.89334L67.5559 8.20907C67.7665 8.31431 67.9595 8.34939 68.1174 8.34939C68.2753 8.34939 68.4157 8.31431 68.5385 8.22661C68.6613 8.13891 68.7666 8.03366 68.8544 7.87579C68.9596 7.71793 69.0474 7.54252 69.1527 7.33203C69.2579 7.12154 69.3281 6.9286 69.3808 6.75319C69.4334 6.57778 69.451 6.41991 69.4334 6.26205C69.3808 5.96386 69.1527 5.71829 68.7315 5.52534L68.0648 5.22715Z" fill="black"/>
<path d="M70.5389 15.7165L75.0661 8.98091L73.7851 8.12141L74.487 7.06897L78.1894 9.54221L77.4875 10.5947L76.1891 9.73516L71.6795 16.4708L70.5389 15.7165Z" fill="black"/>
<path d="M74.7152 18.7861L81.1023 11.9277L84.0327 14.6465L83.1729 15.5761L81.2251 13.7694L79.295 15.8568L80.997 17.4355L80.1372 18.3651L78.4352 16.7865L75.7154 19.7158L74.7152 18.7861Z" fill="black"/>
<path d="M85.0152 19.0141C85.3135 18.786 85.6294 18.6457 85.9277 18.5756C86.226 18.5054 86.5418 18.5054 86.8226 18.558C87.1033 18.6106 87.349 18.7159 87.5946 18.8738C87.8403 19.0316 88.0333 19.207 88.1912 19.4351C88.3492 19.6455 88.472 19.8911 88.5597 20.1718C88.6475 20.4349 88.6825 20.7155 88.665 21.0137C88.6299 21.2944 88.5422 21.575 88.4018 21.8557C88.2439 22.1363 88.0333 22.3819 87.7175 22.6099L83.7694 25.5918C83.4535 25.8374 83.1377 25.9777 82.8394 26.0479C82.5411 26.1181 82.2428 26.1181 81.9796 26.0654C81.6988 26.0128 81.4356 25.9076 81.19 25.7497C80.9443 25.5918 80.7513 25.4164 80.5934 25.1884C80.4355 24.9604 80.2951 24.7323 80.2249 24.4517C80.1547 24.171 80.1196 23.9079 80.1372 23.6097C80.1547 23.3291 80.2249 23.0484 80.3828 22.7678C80.5232 22.4871 80.7513 22.2416 81.0672 21.996L85.0152 19.0141ZM81.8743 23.066C81.6111 23.2589 81.4883 23.4694 81.4707 23.715C81.4532 23.943 81.5234 24.171 81.6638 24.364C81.8041 24.5569 81.9971 24.6797 82.2253 24.7324C82.4534 24.785 82.699 24.7148 82.9622 24.5219L86.9103 21.5399C87.1735 21.347 87.3139 21.1365 87.3139 20.8909C87.3314 20.6629 87.2612 20.4349 87.1033 20.2419C86.9629 20.049 86.7699 19.9262 86.5418 19.8736C86.3137 19.8209 86.0681 19.8911 85.8048 20.0841L81.8743 23.066Z" fill="black"/>
<path d="M83.4886 29.3282L91.8235 25.0482L92.4376 26.241L85.296 29.907L86.5067 32.275L85.3135 32.8889L83.4886 29.3282Z" fill="black"/>
<path d="M86.2786 35.3971L95.1223 32.3275L95.5609 33.5904L86.7172 36.6601L86.2786 35.3971Z" fill="black"/>
<path d="M94.6134 38.0985C94.9819 38.0283 95.3328 38.0283 95.6311 38.0985C95.947 38.1686 96.2102 38.309 96.4383 38.4844C96.6664 38.6598 96.8419 38.8703 96.9823 39.1158C97.1226 39.3614 97.2279 39.6245 97.2805 39.8876C97.3332 40.1507 97.3332 40.4314 97.2805 40.712C97.2279 40.9927 97.1402 41.2558 96.9998 41.5014C96.8419 41.7469 96.6489 41.9574 96.3857 42.1328C96.1225 42.3082 95.8066 42.4486 95.4381 42.5187L90.5776 43.4308C90.1916 43.501 89.8406 43.501 89.5423 43.4308C89.244 43.3607 88.9808 43.2204 88.7703 43.0625C88.5421 42.8871 88.3491 42.6766 88.2088 42.431C88.0684 42.1855 87.9631 41.9223 87.9105 41.6592C87.8578 41.3961 87.8578 41.1155 87.9105 40.8348C87.9631 40.5542 88.0508 40.2911 88.2088 40.0455C88.3491 39.7999 88.5421 39.5719 88.7878 39.3965C89.0335 39.2211 89.3669 39.0807 89.7529 39.0106L94.6134 38.0985ZM89.9985 40.3437C89.6827 40.3963 89.4546 40.5366 89.3493 40.7471C89.2265 40.9576 89.1914 41.1681 89.244 41.4137C89.2967 41.6592 89.402 41.8522 89.595 41.9925C89.788 42.1328 90.0336 42.1855 90.3495 42.1328L95.21 41.2207C95.5258 41.1681 95.754 41.0278 95.8592 40.8173C95.9821 40.6068 96.0172 40.3963 95.9645 40.1507C95.9119 39.9052 95.8066 39.7122 95.6136 39.5719C95.4206 39.4316 95.1749 39.3789 94.8591 39.4316L89.9985 40.3437Z" fill="black"/>
<path d="M88.6826 50.9733L98 51.903L97.807 53.9026C97.7719 54.271 97.6842 54.5867 97.5614 54.8498C97.4385 55.1129 97.2455 55.3585 96.9823 55.5515C96.7191 55.7619 96.4208 55.8847 96.0699 55.9374C95.7365 55.99 95.2803 55.99 94.7188 55.9374C94.2976 55.9023 93.9467 55.8321 93.6659 55.7619C93.3852 55.6918 93.122 55.5515 92.8939 55.376C92.6131 55.1656 92.385 54.9025 92.2446 54.5692C92.1042 54.2534 92.0516 53.8325 92.1043 53.3413L92.1744 52.6572L88.5247 52.2889L88.6826 50.9733ZM96.6138 53.1133L93.4378 52.7976L93.3676 53.4466C93.3325 53.7097 93.3676 53.9377 93.4203 54.078C93.4729 54.2184 93.5782 54.3587 93.7186 54.4464C93.8414 54.5341 93.9993 54.5867 94.1923 54.6218C94.3854 54.6569 94.5959 54.6744 94.824 54.7095C95.0346 54.727 95.2452 54.7446 95.4557 54.7621C95.6663 54.7797 95.8242 54.7446 95.9821 54.692C96.1401 54.6393 96.2629 54.5516 96.3506 54.4113C96.4384 54.271 96.5085 54.078 96.5261 53.8149L96.6138 53.1133Z" fill="black"/>
<path d="M94.6309 59.7963C94.9994 59.9016 95.2977 60.0595 95.5434 60.2699C95.789 60.4804 95.9645 60.7085 96.0873 60.9716C96.2102 61.2171 96.2804 61.4978 96.2979 61.7784C96.3154 62.0591 96.2979 62.3397 96.2102 62.6029C96.1224 62.866 96.0171 63.1115 95.8417 63.3396C95.6838 63.5676 95.4732 63.7605 95.2275 63.9184C94.9819 64.0587 94.7011 64.164 94.3853 64.2166C94.0694 64.2692 93.736 64.2341 93.3676 64.1289L88.6123 62.7607C88.2263 62.6555 87.928 62.4976 87.6999 62.2871C87.4718 62.0766 87.2963 61.8486 87.1735 61.603C87.0506 61.3399 86.9804 61.0593 86.9629 60.7786C86.9454 60.498 86.9629 60.2173 87.0506 59.9542C87.1384 59.6911 87.2437 59.4455 87.4191 59.2175C87.577 58.9895 87.7876 58.7965 88.0333 58.6562C88.2614 58.4983 88.5421 58.3931 88.8404 58.3405C89.1387 58.2878 89.4897 58.3229 89.8757 58.4282L94.6309 59.7963ZM89.5072 59.7262C89.1914 59.6385 88.9457 59.656 88.7351 59.7963C88.5246 59.9367 88.4018 60.1121 88.3316 60.3401C88.2614 60.5681 88.2789 60.7962 88.3842 61.0242C88.4895 61.2522 88.6825 61.3925 88.9984 61.4802L93.7536 62.8484C94.0694 62.9361 94.3151 62.9186 94.5257 62.7783C94.7362 62.6379 94.859 62.4625 94.9292 62.2345C94.9994 62.0065 94.9819 61.7784 94.8766 61.5504C94.7713 61.3224 94.5783 61.1821 94.2625 61.0944L89.5072 59.7262Z" fill="black"/>
<path d="M85.4714 64.7954L93.8413 68.9876L92.8762 70.9171C92.1743 72.3204 90.9987 72.6186 89.3492 71.7942C88.8579 71.5486 88.4719 71.2679 88.2087 70.9347C87.9455 70.6014 87.8051 70.198 87.77 69.7068L83.2955 69.0929L83.9272 67.83L88.0683 68.4965L88.4368 67.7773L84.8572 65.9882L85.4714 64.7954ZM92.1217 69.6191L89.5072 68.3036L89.1562 68.9876C89.0509 69.1981 88.9983 69.3911 88.9983 69.5314C88.9983 69.6717 89.0334 69.8296 89.1036 69.9524C89.1738 70.0752 89.2966 70.1804 89.437 70.2857C89.5774 70.3909 89.7704 70.4961 89.9809 70.6014C90.1915 70.7066 90.3845 70.7943 90.56 70.847C90.7355 70.8996 90.8934 70.9347 91.0513 70.9171C91.3496 70.882 91.5953 70.654 91.8058 70.233L92.1217 69.6191Z" fill="black"/>
<path d="M81.9797 71.1276L89.5073 76.7056L87.1209 79.9155L86.1032 79.1613L87.6824 77.0213L85.4013 75.3374L84.0151 77.1967L82.9974 76.4425L84.3836 74.5832L81.1725 72.1976L81.9797 71.1276Z" fill="black"/>
<path d="M82.9096 81.3714C83.1728 81.6521 83.3483 81.9327 83.4535 82.2309C83.5588 82.5291 83.5939 82.8273 83.5764 83.1255C83.5588 83.4061 83.4711 83.6692 83.3483 83.9323C83.2254 84.1955 83.05 84.4059 82.8569 84.5989C82.6639 84.7918 82.4358 84.9322 82.1726 85.055C81.9094 85.1602 81.6462 85.2304 81.3479 85.2479C81.0671 85.2479 80.7688 85.1953 80.4705 85.0725C80.1722 84.9497 79.8915 84.7568 79.6458 84.4761L76.2417 80.8978C75.9785 80.6172 75.7855 80.319 75.6802 80.0208C75.5749 79.7226 75.5398 79.4419 75.5749 79.1613C75.5925 78.8631 75.6802 78.6 75.803 78.3369C75.9259 78.0913 76.1013 77.8633 76.2944 77.6703C76.4874 77.4774 76.7155 77.337 76.9787 77.2143C77.2419 77.0915 77.5051 77.0388 77.8034 77.0388C78.0841 77.0213 78.3825 77.0739 78.6632 77.1792C78.9615 77.2844 79.2247 77.4949 79.5055 77.7756L82.9096 81.3714ZM78.5228 78.7228C78.2947 78.4947 78.0666 78.3719 77.8385 78.3895C77.6104 78.407 77.3998 78.4947 77.2243 78.6701C77.0489 78.8455 76.9436 79.0385 76.926 79.2841C76.9085 79.5121 76.9962 79.7577 77.2243 79.9857L80.6285 83.564C80.8566 83.792 81.0847 83.9148 81.3128 83.8973C81.5409 83.8797 81.7515 83.792 81.9269 83.6166C82.1024 83.4412 82.2077 83.2483 82.2252 83.0027C82.2428 82.7747 82.1551 82.5291 81.9269 82.3011L78.5228 78.7228Z" fill="black"/>
<path d="M72.4516 81.0381L77.6456 88.8438L76.5225 89.5805L72.0832 82.8975L69.8722 84.3709L69.1353 83.2483L72.4516 81.0381Z" fill="black"/>
<path d="M66.7839 84.4761L70.8372 92.9132L69.6265 93.492L65.5731 85.0549L66.7839 84.4761Z" fill="black"/>
<path d="M64.959 93.0711C65.0643 93.4394 65.0994 93.7727 65.0643 94.0884C65.0292 94.4042 64.9239 94.6848 64.766 94.9304C64.6256 95.176 64.4326 95.3689 64.2045 95.5443C63.9764 95.7197 63.7307 95.8425 63.4675 95.9127C63.2043 96.0004 62.9411 96.0179 62.6428 96.0179C62.3445 96.0179 62.0813 95.9478 61.8181 95.825C61.5549 95.7022 61.3268 95.5268 61.1162 95.2812C60.9057 95.0356 60.7478 94.7374 60.6249 94.3866L59.1685 89.6506C59.0457 89.2823 59.0106 88.9315 59.0632 88.6333C59.0983 88.3351 59.2036 88.0544 59.344 87.8089C59.5019 87.5633 59.6949 87.3528 59.923 87.1774C60.1512 87.002 60.3968 86.8792 60.66 86.809C60.9232 86.7213 61.1864 86.7038 61.4672 86.7038C61.7479 86.7213 62.0287 86.7915 62.2743 86.9143C62.5376 87.0195 62.7657 87.1949 62.9762 87.423C63.1868 87.651 63.3447 87.9492 63.4675 88.3351L64.959 93.0711ZM62.2217 88.7385C62.134 88.4228 61.976 88.2298 61.7479 88.1246C61.5374 88.0369 61.3093 88.0194 61.0636 88.0895C60.8179 88.1597 60.6425 88.3 60.5196 88.493C60.3968 88.6859 60.3793 88.949 60.467 89.2647L61.9234 94.0007C62.0111 94.3165 62.1691 94.5094 62.3972 94.6147C62.6077 94.7024 62.8358 94.7199 63.0815 94.6497C63.3096 94.5796 63.5026 94.4393 63.6255 94.2463C63.7483 94.0534 63.7658 93.7902 63.6781 93.4745L62.2217 88.7385Z" fill="black"/>
<path d="M51.6057 88.5982L51.7636 97.9649L49.7457 98C49.3772 98 49.0439 97.9649 48.7631 97.8772C48.4824 97.7895 48.2191 97.6141 47.991 97.3686C47.7629 97.123 47.605 96.8423 47.4997 96.5091C47.3944 96.1758 47.3593 95.7373 47.3418 95.176C47.3418 94.755 47.3593 94.4042 47.3944 94.106C47.4471 93.8078 47.5348 93.5447 47.6927 93.2816C47.8682 92.9658 48.1139 92.7378 48.4122 92.5449C48.7105 92.3695 49.114 92.2818 49.6229 92.2642L50.3072 92.2467L50.2546 88.5982H51.6057ZM50.395 96.7196L50.3423 93.5447L49.6931 93.5622C49.4299 93.5622 49.2193 93.6149 49.0614 93.685C48.9035 93.7552 48.7982 93.878 48.7456 94.0183C48.6754 94.1586 48.6403 94.3165 48.6227 94.5094C48.6052 94.7024 48.6052 94.9129 48.6052 95.1584C48.6052 95.3689 48.6227 95.5794 48.6227 95.7899C48.6403 95.9829 48.6754 96.1583 48.7456 96.2986C48.8157 96.4389 48.921 96.5617 49.0614 96.6319C49.2018 96.702 49.4123 96.7371 49.6755 96.7371L50.395 96.7196Z" fill="black"/>
<path d="M43.4112 95.5092C43.341 95.8776 43.2358 96.1933 43.0427 96.4564C42.8673 96.7196 42.6567 96.93 42.4111 97.0879C42.1654 97.2282 41.9197 97.3335 41.639 97.3861C41.3582 97.4387 41.0775 97.4387 40.8143 97.3861C40.5511 97.3335 40.2879 97.2458 40.0422 97.1054C39.7965 96.9651 39.586 96.7897 39.393 96.5617C39.2175 96.3337 39.0947 96.0705 39.0069 95.7548C38.9192 95.4391 38.9192 95.1058 38.9718 94.7374L39.7965 89.8611C39.8667 89.4752 39.9896 89.142 40.165 88.8964C40.3405 88.6333 40.5511 88.4403 40.7792 88.3C41.0248 88.1421 41.288 88.0369 41.5688 88.0018C41.8496 87.9492 42.1303 87.9492 42.3935 88.0018C42.6567 88.0544 42.9199 88.1421 43.1656 88.2825C43.4112 88.4228 43.6218 88.5982 43.7973 88.8262C43.9903 89.0367 44.1131 89.2998 44.2008 89.598C44.2886 89.8962 44.2886 90.247 44.2184 90.6329L43.4112 95.5092ZM42.9199 90.4224C42.9726 90.1067 42.9199 89.8436 42.7795 89.6682C42.6216 89.4928 42.4286 89.37 42.1829 89.3349C41.9373 89.2998 41.7267 89.3349 41.5162 89.4577C41.3056 89.5805 41.1828 89.791 41.1301 90.1242L40.3054 95.0006C40.2528 95.3163 40.3054 95.5794 40.4458 95.7548C40.6037 95.9302 40.7967 96.053 41.0424 96.0881C41.288 96.1232 41.4986 96.0881 41.7092 95.9653C41.9197 95.8425 42.0426 95.6145 42.0952 95.2988L42.9199 90.4224Z" fill="black"/>
<path d="M37.4453 86.9845L34.2166 95.7724L32.1812 95.0356C30.6897 94.4919 30.2686 93.3517 30.9002 91.6328C31.0933 91.1065 31.3389 90.7031 31.6197 90.4049C31.918 90.1067 32.304 89.9138 32.7953 89.8436L32.9006 85.3356L34.2342 85.8268L34.0412 90.019L34.7957 90.2997L36.1643 86.5459L37.4453 86.9845ZM33.4095 94.1235L34.4096 91.3872L33.6902 91.1241C33.4621 91.0364 33.2866 91.0013 33.1287 91.0188C32.9708 91.0364 32.8304 91.089 32.7251 91.1767C32.6198 91.2644 32.5146 91.3872 32.4268 91.545C32.3391 91.7029 32.2514 91.8959 32.1812 92.1239C32.0934 92.3519 32.0408 92.5449 32.0057 92.7203C31.9706 92.8957 31.9706 93.0711 31.9882 93.2114C32.0583 93.4921 32.3216 93.7201 32.7427 93.878L33.4095 94.1235Z" fill="black"/>
<path d="M30.1633 83.8622L26.1801 90.9136L27.5312 91.6854L26.9171 92.7904L23.0392 90.5978L23.6533 89.4928L25.0044 90.2646L28.9876 83.2132L30.1633 83.8622Z" fill="black"/>
<path d="M25.7414 81.1258L19.8983 88.4403L16.7749 85.9495L17.5645 84.9672L19.6351 86.6161L21.4073 84.3884L19.6 82.9501L20.3896 81.9678L22.1969 83.4061L24.6886 80.2839L25.7414 81.1258Z" fill="black"/>
<path d="M15.4765 81.6872C15.1958 81.9327 14.8975 82.1081 14.5992 82.1958C14.3009 82.2835 14.0026 82.3186 13.7043 82.2835C13.4235 82.2485 13.1603 82.1608 12.9147 82.0204C12.669 81.8801 12.4584 81.7222 12.2654 81.5118C12.0724 81.3013 11.9496 81.0732 11.8443 80.8101C11.739 80.547 11.6864 80.2664 11.6688 79.9857C11.6688 79.7051 11.739 79.4069 11.8794 79.1262C12.0198 78.8456 12.2128 78.5649 12.4935 78.3193L16.1959 75.0392C16.4942 74.7761 16.7925 74.6007 17.0908 74.513C17.3891 74.4253 17.6699 74.4078 17.9507 74.4428C18.2489 74.4779 18.5122 74.5656 18.7578 74.706C19.0035 74.8463 19.214 75.0042 19.4071 75.2146C19.5825 75.4251 19.7229 75.6532 19.8282 75.9163C19.9335 76.1794 19.9861 76.46 19.9861 76.7407C19.9861 77.0213 19.9335 77.3195 19.8106 77.6002C19.6878 77.8808 19.4772 78.1615 19.1789 78.4246L15.4765 81.6872ZM18.284 77.4072C18.5297 77.1967 18.6525 76.9687 18.635 76.7231C18.635 76.4951 18.5472 76.2846 18.3893 76.0917C18.2314 75.9163 18.0208 75.7935 17.7927 75.7584C17.5646 75.7233 17.319 75.811 17.0733 76.039L13.3709 79.3192C13.1252 79.5297 13.0024 79.7577 13.0199 80.0033C13.0199 80.2313 13.1077 80.4418 13.2656 80.6347C13.4235 80.8277 13.6341 80.9329 13.8622 80.968C14.0903 81.0031 14.336 80.9154 14.5816 80.6873L18.284 77.4072Z" fill="black"/>
<path d="M16.2134 71.3031L8.22947 76.2145L7.52759 75.0743L14.3709 70.8645L12.9847 68.6018L14.1253 67.9001L16.2134 71.3031Z" fill="black"/>
<path d="M12.9848 65.4971L4.38673 69.2508L3.84277 68.0229L12.4233 64.2692L12.9848 65.4971Z" fill="black"/>
<path d="M4.43946 63.357C4.07097 63.4623 3.73758 63.4798 3.42173 63.4272C3.10589 63.3746 2.82513 63.2693 2.57947 63.1115C2.35136 62.9536 2.1408 62.7607 1.98288 62.5326C1.82495 62.3046 1.70212 62.059 1.63194 61.7959C1.56175 61.5328 1.5442 61.2522 1.56175 60.9715C1.5793 60.6909 1.64948 60.4102 1.77231 60.1646C1.91269 59.9191 2.08816 59.691 2.33382 59.4806C2.57947 59.2701 2.87777 59.1297 3.24626 59.0245L8.01905 57.744C8.42263 57.6388 8.77357 57.6037 9.07187 57.6563C9.37017 57.7089 9.65092 57.8142 9.87903 57.9721C10.1247 58.1299 10.3177 58.3229 10.4932 58.5684C10.6511 58.7965 10.7739 59.042 10.8441 59.3051C10.9143 59.5683 10.9318 59.8489 10.9143 60.1296C10.8968 60.4102 10.809 60.6733 10.6862 60.9364C10.5634 61.1995 10.3879 61.4276 10.1422 61.6205C9.91412 61.8135 9.59828 61.9713 9.21224 62.0766L4.43946 63.357ZM8.8613 60.7786C9.17715 60.6909 9.38771 60.5505 9.47545 60.3401C9.56318 60.1296 9.59828 59.9015 9.52809 59.656C9.4579 59.4104 9.33507 59.235 9.14205 59.0947C8.94904 58.9543 8.68583 58.9368 8.38753 59.0245L3.61475 60.305C3.2989 60.3927 3.08834 60.533 3.0006 60.7435C2.89532 60.954 2.87777 61.182 2.94796 61.4276C3.01815 61.6731 3.14098 61.8486 3.334 61.9889C3.52701 62.1292 3.79022 62.1467 4.08852 62.059L8.8613 60.7786Z" fill="black"/>
<path d="M9.3701 50.1314L0 49.9209L0.052641 47.9037C0.052641 47.5354 0.122829 47.2196 0.210564 46.939C0.298299 46.6583 0.491316 46.4127 0.736974 46.1847C0.982632 45.9567 1.28093 45.8164 1.61432 45.7287C1.94772 45.641 2.38639 45.6234 2.9479 45.6234C3.36902 45.641 3.71996 45.6585 4.01826 45.7287C4.31656 45.7813 4.57977 45.8865 4.82543 46.0619C5.12372 46.2549 5.36938 46.5004 5.52731 46.8162C5.68523 47.1319 5.77296 47.5353 5.75542 48.0265L5.73787 48.7106L9.38765 48.7983L9.3701 50.1314ZM1.29848 48.6053L4.47449 48.6755L4.49203 48.0265C4.49203 47.7634 4.45694 47.5354 4.38675 47.395C4.31656 47.2547 4.21128 47.1319 4.0709 47.0618C3.94808 46.9916 3.77261 46.939 3.57959 46.9214C3.38657 46.9039 3.17601 46.8863 2.93035 46.8863C2.71979 46.8863 2.50922 46.8863 2.29866 46.8863C2.10564 46.8863 1.93017 46.9214 1.77225 46.9916C1.61432 47.0618 1.50904 47.167 1.42131 47.3073C1.33357 47.4476 1.29848 47.6406 1.28093 47.9037L1.29848 48.6053Z" fill="black"/>
<path d="M2.73732 41.7995C2.36883 41.7294 2.05298 41.5891 1.78978 41.4136C1.52657 41.2382 1.33356 41.0102 1.19318 40.7471C1.0528 40.5015 0.96507 40.2384 0.929976 39.9578C0.894882 39.6771 0.894882 39.3965 0.947523 39.1334C1.00016 38.8702 1.10545 38.6071 1.24582 38.3616C1.3862 38.116 1.57921 37.9055 1.80733 37.7301C2.03544 37.5547 2.31619 37.4494 2.61449 37.3793C2.91279 37.3091 3.26373 37.3091 3.63221 37.3793L8.47519 38.3791C8.86122 38.4668 9.17707 38.5896 9.42272 38.7825C9.66838 38.9755 9.8614 39.186 10.0018 39.4315C10.1422 39.6771 10.2474 39.9578 10.2825 40.2384C10.3176 40.5191 10.3176 40.7997 10.265 41.0628C10.2123 41.3259 10.1071 41.5891 9.96668 41.8346C9.82631 42.0802 9.63329 42.2907 9.38763 42.4485C9.15952 42.624 8.89631 42.7467 8.59802 42.8169C8.29972 42.8871 7.94878 42.8871 7.56274 42.7994L2.73732 41.7995ZM7.86104 41.4838C8.17689 41.554 8.44009 41.5014 8.61556 41.361C8.80858 41.2207 8.91386 41.0278 8.9665 40.7822C9.01914 40.5366 8.98405 40.3261 8.86122 40.1156C8.73839 39.9051 8.52783 39.7648 8.21198 39.7122L3.36901 38.7124C3.05316 38.6422 2.78996 38.6948 2.61449 38.8352C2.42147 38.9755 2.31619 39.1684 2.26355 39.414C2.21091 39.6596 2.246 39.8701 2.36883 40.0806C2.49166 40.291 2.70222 40.4314 3.01807 40.484L7.86104 41.4838Z" fill="black"/>
<path d="M11.4933 36.0988L2.8075 32.5731L3.61466 30.5735C4.21126 29.1176 5.35181 28.7317 7.05387 29.4158C7.56273 29.6263 7.96631 29.8719 8.26461 30.1876C8.56291 30.5033 8.73838 30.8892 8.79102 31.3804L13.3006 31.6435L12.7742 32.959L8.59801 32.6082L8.29971 33.3449L12.0021 34.8534L11.4933 36.0988ZM4.49201 31.8189L7.19425 32.9239L7.475 32.2223C7.56273 32.0118 7.59783 31.8189 7.59783 31.661C7.59783 31.5031 7.54519 31.3628 7.45745 31.2576C7.36972 31.1523 7.24689 31.0471 7.08896 30.9594C6.93104 30.8717 6.73802 30.784 6.52746 30.6787C6.3169 30.5735 6.10633 30.5209 5.93086 30.4858C5.75539 30.4507 5.59747 30.4332 5.43955 30.4507C5.14125 30.5209 4.91314 30.7664 4.73767 31.1874L4.49201 31.8189Z" fill="black"/>
<path d="M14.8623 28.9422L7.94882 24.7149L7.14166 26.0304L6.07129 25.3639L8.38749 21.5751L9.45786 22.2416L8.6507 23.5572L15.5642 27.7845L14.8623 28.9422Z" fill="black"/>
<path d="M17.74 24.6447L10.616 18.5581L13.2129 15.5236L14.178 16.348L12.4584 18.3476L14.6167 20.1894L16.1257 18.4353L17.0908 19.2597L15.5818 21.0138L18.6174 23.6098L17.74 24.6447Z" fill="black"/>
<path d="M17.5294 14.3658C17.3013 14.0676 17.1258 13.7695 17.0556 13.4537C16.9679 13.1555 16.9504 12.8573 17.003 12.5767C17.0556 12.296 17.1434 12.0329 17.2838 11.7873C17.4241 11.5418 17.5996 11.3313 17.8102 11.1559C18.0207 10.9805 18.2664 10.8402 18.5296 10.7524C18.7928 10.6647 19.0735 10.6121 19.3543 10.6121C19.635 10.6297 19.9334 10.6998 20.2141 10.8402C20.4949 10.9805 20.7581 11.191 21.0037 11.4892L24.1446 15.2955C24.4078 15.6112 24.5658 15.9094 24.6535 16.2076C24.7237 16.5058 24.7412 16.804 24.7061 17.0671C24.6535 17.3478 24.5658 17.6284 24.4254 17.874C24.285 18.1195 24.1095 18.33 23.899 18.5054C23.6884 18.6809 23.4428 18.8212 23.1795 18.9089C22.9163 19.0141 22.6356 19.0492 22.3548 19.0317C22.0741 19.0317 21.7758 18.9615 21.5126 18.8212C21.2318 18.6809 20.9686 18.4704 20.7054 18.1722L17.5294 14.3658ZM21.7231 17.3127C21.9337 17.5582 22.1443 17.6986 22.3899 17.6986C22.618 17.6986 22.8462 17.6284 23.0216 17.4705C23.2146 17.3127 23.3199 17.1197 23.3726 16.8917C23.4252 16.6637 23.3375 16.4181 23.1269 16.1725L19.986 12.3487C19.7579 12.1031 19.5473 11.9628 19.3017 11.9628C19.0735 11.9628 18.8454 12.0329 18.67 12.1908C18.4769 12.3487 18.3717 12.5416 18.319 12.7696C18.2664 12.9977 18.3541 13.2432 18.5647 13.4888L21.7231 17.3127Z" fill="black"/>
<path d="M27.9524 15.4183L23.3375 7.26188L24.5132 6.59534L28.4788 13.5765L30.7599 12.2785L31.4267 13.4538L27.9524 15.4183Z" fill="black"/>
<path d="M33.8481 12.4013L30.4089 3.68352L31.6548 3.19238L35.094 11.9101L33.8481 12.4013Z" fill="black"/>
<path d="M36.2872 3.94667C36.1995 3.57831 36.1995 3.24504 36.2521 2.92931C36.3223 2.61357 36.4276 2.35046 36.6031 2.10489C36.761 1.87686 36.9715 1.68391 37.1997 1.52605C37.4453 1.36818 37.691 1.26294 37.9542 1.21032C38.2174 1.15769 38.4981 1.14015 38.7789 1.17523C39.0596 1.21032 39.3228 1.29802 39.586 1.4208C39.8317 1.56113 40.0598 1.75408 40.2528 1.99965C40.4458 2.24522 40.5862 2.56095 40.674 2.92931L41.7794 7.753C41.8671 8.1389 41.8847 8.48971 41.8145 8.78791C41.7443 9.0861 41.639 9.34921 41.4636 9.57724C41.2881 9.82281 41.0951 10.0158 40.8494 10.1561C40.6038 10.3139 40.3581 10.4192 40.0949 10.4718C39.8492 10.542 39.5685 10.5595 39.2877 10.5244C39.007 10.4894 38.7438 10.4017 38.4981 10.2613C38.2349 10.1385 38.0244 9.94559 37.8313 9.70002C37.6208 9.45445 37.4804 9.15626 37.3927 8.77037L36.2872 3.94667ZM38.7087 8.45463C38.7789 8.77037 38.9193 8.99839 39.1298 9.10364C39.3404 9.20888 39.5685 9.24396 39.7966 9.19134C40.0423 9.13872 40.2353 9.01594 40.3757 8.82299C40.516 8.63004 40.5511 8.38447 40.4809 8.06874L39.3755 3.24504C39.3053 2.92931 39.1649 2.71882 38.9544 2.61357C38.7438 2.50833 38.5157 2.47325 38.2876 2.52587C38.0419 2.57849 37.8489 2.70128 37.7085 2.89422C37.5681 3.08717 37.533 3.33274 37.6032 3.64848L38.7087 8.45463Z" fill="black"/>
</svg>
